<svg xmlns="http://www.w3.org/2000/svg" viewBox="0 0 304 16" width="304" height="16"><g fill="none"><path d="M4.276 4.276L2.573 2.573M8 2.733V.325M2.733 8H.325m3.951 3.724l-1.703 1.703M8 13.267v2.408m3.724-11.399l1.703-1.703m-1.703 9.151l1.703 1.703M13.267 8h2.408"/><path d="M7.439 2.395c-2.897.279-5.109 2.712-5.114 5.623.001 3.125 2.533 5.658 5.657 5.657 2.89-.004 5.312-2.188 5.616-5.064-.765.578-1.697.892-2.656.894-2.442 0-4.421-1.98-4.421-4.423.002-.972.325-1.917.918-2.687z" stroke="#000000" stroke-width=".6503" stroke-linecap="round"/></g><g fill="none" stroke="#000000" stroke-linecap="round"><path d="M20.276 4.276l-1.703-1.703m5.427.16V.325M18.733 8h-2.408m3.951 3.724l-1.703 1.703m5.427-.16v2.408m3.724-11.399l1.703-1.703m-1.703 9.151l1.703 1.703M29.267 8h2.408" stroke-width=".65" stroke-dasharray="0.01736501723255592,2.391040679488825" stroke-dashoffset="2.408406"/><path d="M23.441 2.412c-2.889.278-5.094 2.704-5.099 5.606.001 3.116 2.526 5.642 5.64 5.641 2.882-.004 5.297-2.182 5.6-5.049-.76.569-1.685.877-2.639.875-2.426-.003-4.394-1.973-4.398-4.401-.002-.968.313-1.908.896-2.672z" stroke-width=".6503"/></g><g fill="none" stroke="#000000" stroke-linecap="round"><path d="M36.276 4.276l-1.703-1.703m5.427.16V.325M34.733 8h-2.408m3.951 3.724l-1.703 1.703m5.427-.16v2.408m3.724-11.399l1.703-1.703m-1.703 9.151l1.703 1.703M45.267 8h2.408" stroke-width=".65" stroke-dasharray="0.07899744997619626,2.3294082467451847" stroke-dashoffset="2.408406"/><path d="M39.447 2.472c-2.857.275-5.04 2.676-5.045 5.547.001 3.083 2.499 5.582 5.581 5.581 2.851-.004 5.241-2.158 5.541-4.996-.739.542-1.643.827-2.577.812-2.368-.015-4.299-1.951-4.317-4.327-.016-.952.272-1.875.817-2.617z" stroke-width=".6503"/></g><g fill="none" stroke="#000000" stroke-linecap="round"><path d="M52.276 4.276l-1.703-1.703m5.427.16V.325M50.733 8h-2.408m3.951 3.724l-1.703 1.703m5.427-.16v2.408m3.724-11.399l1.703-1.703m-1.703 9.151l1.703 1.703M61.267 8h2.408" stroke-width=".65" stroke-dasharray="0.20496852672102694,2.203437170000354" stroke-dashoffset="2.408406"/><path d="M55.461 2.595c-2.796.269-4.93 2.617-4.935 5.426.001 3.016 2.444 5.46 5.459 5.459 2.789-.003 5.126-2.111 5.42-4.886-.697.482-1.557.722-2.451.68-2.249-.038-4.103-1.906-4.151-4.173-.043-.921.189-1.808.658-2.506z" stroke-width=".6503"/></g><g fill="none" stroke="#000000" stroke-linecap="round"><path d="M68.276 4.276l-1.703-1.703m5.427.16V.325M66.733 8h-2.408m3.951 3.724l-1.703 1.703m5.427-.16v2.408m3.724-11.399l1.703-1.703m-1.703 9.151l1.703 1.703M77.267 8h2.408" stroke-width=".65" stroke-dasharray="0.42187632567941674,1.9865293710419638" stroke-dashoffset="2.408406"/><path d="M71.484 2.807c-2.688.259-4.741 2.517-4.746 5.218.001 2.9 2.351 5.25 5.25 5.25 2.682-.004 4.93-2.031 5.212-4.7-.624.382-1.407.543-2.233.454-2.044-.077-3.768-1.827-3.865-3.908-.092-.867.045-1.693.382-2.314z" stroke-width=".6503"/></g><g fill="none" stroke="#000000" stroke-linecap="round"><path d="M84.276 4.276l-1.703-1.703m5.427.16V.325M82.733 8h-2.408m3.951 3.724l-1.703 1.703m5.427-.16v2.408m3.724-11.399l1.703-1.703m-1.703 9.151l1.703 1.703M93.267 8h2.408" stroke-width=".65" stroke-dasharray="0.739718376119574,1.6686873206018065" stroke-dashoffset="2.408406"/><path d="M87.519 3.117c-2.532.244-4.465 2.37-4.469 4.913 0 2.731 2.213 4.944 4.943 4.943 2.525-.004 4.642-1.912 4.907-4.425-.517.234-1.189.28-1.915.123-1.744-.136-3.274-1.712-3.446-3.521-.162-.787-.165-1.523-.02-2.033z" stroke-width=".6503"/></g><g fill="none" stroke="#000000" stroke-linecap="round"><path d="M100.276 4.276l-1.703-1.703m5.427.16V.325M98.733 8h-2.408m3.951 3.724l-1.703 1.703m5.427-.16v2.408m3.724-11.399l1.703-1.703m-1.703 9.151l1.703 1.703M109.267 8h2.408" stroke-width=".65" stroke-dasharray="1.101247695010716,1.3071580017106648" stroke-dashoffset="2.408406"/><path d="M103.557 3.47c-2.352.226-4.149 2.202-4.153 4.566 0 2.538 2.057 4.594 4.594 4.594 2.348-.004 4.315-1.777 4.562-4.113-.397.067-.942-.019-1.554-.253-1.403-.203-2.714-1.582-2.969-3.081-.242-.696-.405-1.331-.48-1.713z" stroke-width=".6503"/></g><g fill="none" stroke="#000000" stroke-linecap="round"><path d="M116.276 4.276l-1.703-1.703m5.427.16V.325M114.733 8h-2.408m3.951 3.724l-1.703 1.703m5.427-.16v2.408m3.724-11.399l1.703-1.703m-1.703 9.151l1.703 1.703M125.267 8h2.408" stroke-width=".65" stroke-dasharray="1.4218971840310655,0.9865085126903151" stroke-dashoffset="2.408406"/><path d="M119.592 3.783c-2.195.211-3.87 2.054-3.874 4.258 0 2.367 1.919 4.285 4.285 4.284 2.189-.003 4.025-1.657 4.254-3.835-.289-.083-.721-.284-1.232-.588-1.101-.261-2.217-1.466-2.546-2.69-.314-.616-.618-1.16-.887-1.429z" stroke-width=".6503"/></g><g fill="none" stroke="#000000" stroke-linecap="round"><path d="M132.276 4.276l-1.703-1.703m5.427.16V.325M130.733 8h-2.408m3.951 3.724l-1.703 1.703m5.427-.16v2.408m3.724-11.399l1.703-1.703m-1.703 9.151l1.703 1.703M141.267 8h2.408" stroke-width=".65" stroke-dasharray="1.674407548360849,0.7339981483605318" stroke-dashoffset="2.408406"/><path d="M135.619 4.029c-2.07.2-3.65 1.937-3.654 4.016 0 2.232 1.81 4.041 4.042 4.041 2.065-.004 3.796-1.563 4.012-3.618-.205-.199-.548-.492-.98-.851-.862-.308-1.825-1.374-2.213-2.382-.369-.552-.784-1.025-1.207-1.206z" stroke-width=".6503"/></g><g fill="none" stroke="#000000" stroke-linecap="round"><path d="M148.276 4.276l-1.703-1.703m5.427.16V.325M146.733 8h-2.408m3.951 3.724l-1.703 1.703m5.427-.16v2.408m3.724-11.399l1.703-1.703m-1.703 9.151l1.703 1.703M157.267 8h2.408" stroke-width=".65" stroke-dasharray="1.8678662798489538,0.540539416872427" stroke-dashoffset="2.408406"/><path d="M151.64 4.218c-1.974.19-3.482 1.848-3.485 3.83 0 2.129 1.726 3.854 3.855 3.854 1.969-.003 3.62-1.491 3.827-3.45-.14-.29-.416-.653-.786-1.053-.68-.343-1.526-1.304-1.958-2.146-.412-.504-.913-.922-1.453-1.035z" stroke-width=".6503"/></g><g fill="none" stroke="#000000" stroke-linecap="round"><path d="M164.276 4.276l-1.703-1.703m5.427.16V.325M162.733 8h-2.408m3.951 3.724l-1.703 1.703m5.427-.16v2.408m3.724-11.399l1.703-1.703m-1.703 9.151l1.703 1.703M173.267 8h2.408" stroke-width=".65" stroke-dasharray="2.0161526263790055,0.3922530703423753" stroke-dashoffset="2.408406"/><path d="M167.656 4.363c-1.901.183-3.353 1.779-3.356 3.688 0 2.05 1.662 3.71 3.712 3.71 1.896-.003 3.486-1.435 3.685-3.322-.09-.358-.314-.775-.638-1.207-.54-.371-1.296-1.251-1.762-1.966-.445-.466-1.011-.843-1.641-.903z" stroke-width=".6503"/></g><g fill="none" stroke="#000000" stroke-linecap="round"><path d="M180.276 4.276l-1.703-1.703m5.427.16V.325M178.733 8h-2.408m3.951 3.724l-1.703 1.703m5.427-.16v2.408m3.724-11.399l1.703-1.703m-1.703 9.151l1.703 1.703M189.267 8h2.408" stroke-width=".65" stroke-dasharray="2.1301525649355413,0.2782531317858395" stroke-dashoffset="2.408406"/><path d="M183.668 4.474c-1.844.178-3.253 1.726-3.257 3.578.001 1.99 1.614 3.601 3.603 3.601 1.84-.003 3.383-1.393 3.575-3.223-.052-.412-.235-.87-.523-1.326-.433-.392-1.119-1.21-1.612-1.827-.47-.438-1.087-.783-1.786-.803z" stroke-width=".6503"/></g><g fill="none" stroke="#000000" stroke-linecap="round"><path d="M196.276 4.276l-1.703-1.703m5.427.16V.325M194.733 8h-2.408m3.951 3.724l-1.703 1.703m5.427-.16v2.408m3.724-11.399l1.703-1.703m-1.703 9.151l1.703 1.703M205.267 8h2.408" stroke-width=".65" stroke-dasharray="2.2176016422143423,0.19080405450703822" stroke-dashoffset="2.408406"/><path d="M199.677 4.56c-1.801.173-3.177 1.685-3.18 3.494 0 1.943 1.576 3.516 3.518 3.516 1.797-.003 3.304-1.36 3.492-3.148-.023-.452-.176-.942-.436-1.417-.35-.408-.984-1.178-1.497-1.72-.489-.416-1.144-.736-1.897-.725z" stroke-width=".6503"/></g><g fill="none" stroke="#000000" stroke-linecap="round"><path d="M212.276 4.276l-1.703-1.703m5.427.16V.325M210.733 8h-2.408m3.951 3.724l-1.703 1.703m5.427-.16v2.408m3.724-11.399l1.703-1.703m-1.703 9.151l1.703 1.703M221.267 8h2.408" stroke-width=".65" stroke-dasharray="2.283978586509632,0.12442711021174904" stroke-dashoffset="2.408406"/><path d="M215.685 4.625c-1.769.169-3.12 1.654-3.123 3.43 0 1.907 1.547 3.452 3.454 3.452 1.764-.003 3.244-1.335 3.428-3.09 0-.484-.13-.997-.369-1.487-.288-.42-.881-1.154-1.409-1.639-.505-.4-1.189-.701-1.981-.666z" stroke-width=".6503"/></g><g fill="none" stroke="#000000" stroke-linecap="round"><path d="M228.276 4.276l-1.703-1.703m5.427.16V.325M226.733 8h-2.408m3.951 3.724l-1.703 1.703m5.427-.16v2.408m3.724-11.399l1.703-1.703m-1.703 9.151l1.703 1.703M237.267 8h2.408" stroke-width=".65" stroke-dasharray="2.333242511619079,0.07516318510230202" stroke-dashoffset="2.408406"/><path d="M231.69 4.673c-1.744.167-3.077 1.631-3.08 3.383 0 1.881 1.526 3.404 3.407 3.404 1.74-.003 3.199-1.317 3.381-3.048.016-.506-.097-1.037-.32-1.537-.241-.429-.805-1.136-1.344-1.58-.516-.387-1.222-.674-2.044-.622z" stroke-width=".6503"/></g><g fill="none" stroke="#000000" stroke-linecap="round"><path d="M244.276 4.276l-1.703-1.703m5.427.16V.325M242.733 8h-2.408m3.951 3.724l-1.703 1.703m5.427-.16v2.408m3.724-11.399l1.703-1.703m-1.703 9.151l1.703 1.703M253.267 8h2.408" stroke-width=".65" stroke-dasharray="2.368326540041112,0.04007915668026881" stroke-dashoffset="2.408406"/><path d="M247.694 4.707c-1.727.166-3.046 1.615-3.049 3.349 0 1.863 1.51 3.371 3.372 3.371 1.723-.003 3.168-1.304 3.348-3.018.027-.522-.073-1.066-.285-1.574-.208-.435-.75-1.123-1.298-1.537-.523-.378-1.245-.655-2.088-.591z" stroke-width=".6503"/></g><g fill="none" stroke="#000000" stroke-linecap="round"><path d="M260.276 4.276l-1.703-1.703m5.427.16V.325M258.733 8h-2.408m3.951 3.724l-1.703 1.703m5.427-.16v2.408m3.724-11.399l1.703-1.703m-1.703 9.151l1.703 1.703M269.267 8h2.408" stroke-width=".65" stroke-dasharray="2.3914569589107093,0.016948737810671258" stroke-dashoffset="2.408406"/><path d="M263.696 4.729c-1.715.165-3.026 1.605-3.029 3.328 0 1.85 1.501 3.348 3.351 3.348 1.711-.003 3.146-1.295 3.325-2.998.035-.533-.057-1.086-.262-1.598-.186-.44-.714-1.115-1.267-1.509-.529-.372-1.26-.643-2.118-.571z" stroke-width=".6503"/></g><g fill="none" stroke="#000000" stroke-linecap="round"><path d="M276.276 4.276l-1.703-1.703m5.427.16V.325M274.733 8h-2.408m3.951 3.724l-1.703 1.703m5.427-.16v2.408m3.724-11.399l1.703-1.703m-1.703 9.151l1.703 1.703M285.267 8h2.408" stroke-width=".65" stroke-dasharray="2.404361130378283,0.00404456634309747" stroke-dashoffset="2.408406"/><path d="M279.698 4.742c-1.709.164-3.015 1.599-3.018 3.315 0 1.843 1.495 3.336 3.338 3.336 1.705-.003 3.135-1.291 3.313-2.987.039-.539-.048-1.096-.249-1.611-.174-.443-.695-1.111-1.251-1.493-.531-.369-1.268-.637-2.133-.56z" stroke-width=".6503"/></g><g fill="none" stroke="#000000" stroke-linecap="round"><path d="M292.276 4.276l-1.703-1.703m5.427.16V.325M290.733 8h-2.408m3.951 3.724l-1.703 1.703m5.427-.16v2.408m3.724-11.399l1.703-1.703m-1.703 9.151l1.703 1.703M301.267 8h2.408" stroke-width=".65"/><path d="M295.698 4.746c-1.707.164-3.011 1.597-3.014 3.311 0 1.841 1.493 3.332 3.334 3.332 1.703-.003 3.131-1.289 3.309-2.983.041-.541-.045-1.1-.245-1.616-.17-.443-.688-1.109-1.245-1.488-.532-.368-1.271-.634-2.139-.556z" stroke-width=".6503"/></g></svg>