<svg xmlns="http://www.w3.org/2000/svg" viewBox="0 0 456 24" width="456" height="24"><g stroke="#000000"><g fill="none"><path d="M2.077 15.315V8.696h4.41L12 3.18v17.65l-5.513-5.515z" stroke-width=".65"/><path d="M14 21.441c4.465-.943 7.664-4.878 7.676-9.441-.002-4.572-3.203-8.519-7.676-9.463" stroke-width=".64998"/><path d="M14 16.205c1.627-.77 2.668-2.405 2.676-4.205-.001-1.806-1.043-3.45-2.676-4.223" stroke-width=".64991"/></g><path d="M2.777 2.778l18.445 18.445" fill="#000000" stroke-width=".65" stroke-dasharray="0,26.08516915797174" stroke-dashoffset="26.085169"/></g><g stroke="#000000"><g fill="none"><path d="M26.077 15.315V8.696h4.41L36 3.18v17.65l-5.513-5.515z" stroke-width=".65"/><path d="M38 21.441c4.465-.943 7.664-4.878 7.676-9.441-.002-4.572-3.203-8.519-7.676-9.463" stroke-width=".64998"/><path d="M38 16.205c1.627-.77 2.668-2.405 2.676-4.205-.001-1.806-1.043-3.45-2.676-4.223" stroke-width=".64991"/></g><path d="M26.777 2.778l18.445 18.445" fill="#000000" stroke-width=".65" stroke-dasharray="0.1981461662831202,25.88702299168862" stroke-dashoffset="26.085169"/></g><g stroke="#000000"><g fill="none"><path d="M50.077 15.315V8.696h4.41L60 3.18v17.65l-5.513-5.515z" stroke-width=".65"/><path d="M62 21.441c4.465-.943 7.664-4.878 7.676-9.441-.002-4.572-3.203-8.519-7.676-9.463" stroke-width=".64998"/><path d="M62 16.205c1.627-.77 2.668-2.405 2.676-4.205-.001-1.806-1.043-3.45-2.676-4.223" stroke-width=".64991"/></g><path d="M50.777 2.778l18.445 18.445" fill="#000000" stroke-width=".65" stroke-dasharray="0.7865640941367638,25.298605063834977" stroke-dashoffset="26.085169"/></g><g stroke="#000000"><g fill="none"><path d="M74.077 15.315V8.696h4.41L84 3.18v17.65l-5.513-5.515z" stroke-width=".65"/><path d="M86 21.441c4.465-.943 7.664-4.878 7.676-9.441-.002-4.572-3.203-8.519-7.676-9.463" stroke-width=".64998"/><path d="M86 16.205c1.627-.77 2.668-2.405 2.676-4.205-.001-1.806-1.043-3.45-2.676-4.223" stroke-width=".64991"/></g><path d="M74.777 2.778l18.445 18.445" fill="#000000" stroke-width=".65" stroke-dasharray="1.74737500257694,24.3377941553948" stroke-dashoffset="26.085169"/></g><g stroke="#000000"><g fill="none"><path d="M98.077 15.315V8.696h4.41L108 3.18v17.65l-5.513-5.515z" stroke-width=".65"/><path d="M110 21.441c4.465-.943 7.664-4.878 7.676-9.441-.002-4.572-3.203-8.519-7.676-9.463" stroke-width=".64998"/><path d="M110 16.205c1.627-.77 2.668-2.405 2.676-4.205-.001-1.806-1.043-3.45-2.676-4.223" stroke-width=".64991"/></g><path d="M98.777 2.778l18.445 18.445" fill="#000000" stroke-width=".65" stroke-dasharray="3.0513851383444646,23.033784019627277" stroke-dashoffset="26.085169"/></g><g stroke="#000000"><g fill="none"><path d="M122.077 15.315V8.696h4.41L132 3.18v17.65l-5.513-5.515z" stroke-width=".65"/><path d="M134 21.441c4.465-.943 7.664-4.878 7.676-9.441-.002-4.572-3.203-8.519-7.676-9.463" stroke-width=".64998"/><path d="M134 16.205c1.627-.77 2.668-2.405 2.676-4.205-.001-1.806-1.043-3.45-2.676-4.223" stroke-width=".64991"/></g><path d="M122.777 2.778l18.445 18.445" fill="#000000" stroke-width=".65" stroke-dasharray="4.658972813325022,21.42619634464672" stroke-dashoffset="26.085169"/></g><g stroke="#000000"><g fill="none"><path d="M146.077 15.315V8.696h4.41L156 3.18v17.65l-5.513-5.515z" stroke-width=".65"/><path d="M158 21.441c4.465-.943 7.664-4.878 7.676-9.441-.002-4.572-3.203-8.519-7.676-9.463" stroke-width=".64998"/><path d="M158 16.205c1.627-.77 2.668-2.405 2.676-4.205-.001-1.806-1.043-3.45-2.676-4.223" stroke-width=".64991"/></g><path d="M146.777 2.778l18.445 18.445" fill="#000000" stroke-width=".65" stroke-dasharray="6.521292289492929,19.56387686847881" stroke-dashoffset="26.085169"/></g><g stroke="#000000"><g fill="none"><path d="M170.077 15.315V8.696h4.41L180 3.18v17.65l-5.513-5.515z" stroke-width=".65"/><path d="M182 21.441c4.465-.943 7.664-4.878 7.676-9.441-.002-4.572-3.203-8.519-7.676-9.463" stroke-width=".64998"/><path d="M182 16.205c1.627-.77 2.668-2.405 2.676-4.205-.001-1.806-1.043-3.45-2.676-4.223" stroke-width=".64991"/></g><path d="M170.777 2.778l18.445 18.445" fill="#000000" stroke-width=".65" stroke-dasharray="8.581757931943958,17.503411226027783" stroke-dashoffset="26.085169"/></g><g stroke="#000000"><g fill="none"><path d="M194.077 15.315V8.696h4.41L204 3.18v17.65l-5.513-5.515z" stroke-width=".65"/><path d="M206 21.441c4.465-.943 7.664-4.878 7.676-9.441-.002-4.572-3.203-8.519-7.676-9.463" stroke-width=".64998"/><path d="M206 16.205c1.627-.77 2.668-2.405 2.676-4.205-.001-1.806-1.043-3.45-2.676-4.223" stroke-width=".64991"/></g><path d="M194.777 2.778l18.445 18.445" fill="#000000" stroke-width=".65" stroke-dasharray="10.777763534778167,15.307405623193574" stroke-dashoffset="26.085169"/></g><g stroke="#000000"><g fill="none"><path d="M218.077 15.315V8.696h4.41L228 3.18v17.65l-5.513-5.515z" stroke-width=".65"/><path d="M230 21.441c4.465-.943 7.664-4.878 7.676-9.441-.002-4.572-3.203-8.519-7.676-9.463" stroke-width=".64998"/><path d="M230 16.205c1.627-.77 2.668-2.405 2.676-4.205-.001-1.806-1.043-3.45-2.676-4.223" stroke-width=".64991"/></g><path d="M218.777 2.778l18.445 18.445" fill="#000000" stroke-width=".65" stroke-dasharray="13.042584578985867,13.042584578985874" stroke-dashoffset="26.085169"/></g><g stroke="#000000"><g fill="none"><path d="M242.077 15.315V8.696h4.41L252 3.18v17.65l-5.513-5.515z" stroke-width=".65"/><path d="M254 21.441c4.465-.943 7.664-4.878 7.676-9.441-.002-4.572-3.203-8.519-7.676-9.463" stroke-width=".64998"/><path d="M254 16.205c1.627-.77 2.668-2.405 2.676-4.205-.001-1.806-1.043-3.45-2.676-4.223" stroke-width=".64991"/></g><path d="M242.777 2.778l18.445 18.445" fill="#000000" stroke-width=".65" stroke-dasharray="15.30740562319357,10.77776353477817" stroke-dashoffset="26.085169"/></g><g stroke="#000000"><g fill="none"><path d="M266.077 15.315V8.696h4.41L276 3.18v17.65l-5.513-5.515z" stroke-width=".65"/><path d="M278 21.441c4.465-.943 7.664-4.878 7.676-9.441-.002-4.572-3.203-8.519-7.676-9.463" stroke-width=".64998"/><path d="M278 16.205c1.627-.77 2.668-2.405 2.676-4.205-.001-1.806-1.043-3.45-2.676-4.223" stroke-width=".64991"/></g><path d="M266.777 2.778l18.445 18.445" fill="#000000" stroke-width=".65" stroke-dasharray="17.503411226027776,8.581757931943965" stroke-dashoffset="26.085169"/></g><g stroke="#000000"><g fill="none"><path d="M290.077 15.315V8.696h4.41L300 3.18v17.65l-5.513-5.515z" stroke-width=".65"/><path d="M302 21.441c4.465-.943 7.664-4.878 7.676-9.441-.002-4.572-3.203-8.519-7.676-9.463" stroke-width=".64998"/><path d="M302 16.205c1.627-.77 2.668-2.405 2.676-4.205-.001-1.806-1.043-3.45-2.676-4.223" stroke-width=".64991"/></g><path d="M290.777 2.778l18.445 18.445" fill="#000000" stroke-width=".65" stroke-dasharray="19.563876868478797,6.521292289492944" stroke-dashoffset="26.085169"/></g><g stroke="#000000"><g fill="none"><path d="M314.077 15.315V8.696h4.41L324 3.18v17.65l-5.513-5.515z" stroke-width=".65"/><path d="M326 21.441c4.465-.943 7.664-4.878 7.676-9.441-.002-4.572-3.203-8.519-7.676-9.463" stroke-width=".64998"/><path d="M326 16.205c1.627-.77 2.668-2.405 2.676-4.205-.001-1.806-1.043-3.45-2.676-4.223" stroke-width=".64991"/></g><path d="M314.777 2.778l18.445 18.445" fill="#000000" stroke-width=".65" stroke-dasharray="21.426196344646716,4.6589728133250246" stroke-dashoffset="26.085169"/></g><g stroke="#000000"><g fill="none"><path d="M338.077 15.315V8.696h4.41L348 3.18v17.65l-5.513-5.515z" stroke-width=".65"/><path d="M350 21.441c4.465-.943 7.664-4.878 7.676-9.441-.002-4.572-3.203-8.519-7.676-9.463" stroke-width=".64998"/><path d="M350 16.205c1.627-.77 2.668-2.405 2.676-4.205-.001-1.806-1.043-3.45-2.676-4.223" stroke-width=".64991"/></g><path d="M338.777 2.778l18.445 18.445" fill="#000000" stroke-width=".65" stroke-dasharray="23.03378401962727,3.0513851383444703" stroke-dashoffset="26.085169"/></g><g stroke="#000000"><g fill="none"><path d="M362.077 15.315V8.696h4.41L372 3.18v17.65l-5.513-5.515z" stroke-width=".65"/><path d="M374 21.441c4.465-.943 7.664-4.878 7.676-9.441-.002-4.572-3.203-8.519-7.676-9.463" stroke-width=".64998"/><path d="M374 16.205c1.627-.77 2.668-2.405 2.676-4.205-.001-1.806-1.043-3.45-2.676-4.223" stroke-width=".64991"/></g><path d="M362.777 2.778l18.445 18.445" fill="#000000" stroke-width=".65" stroke-dasharray="24.337794155394803,1.747375002576937" stroke-dashoffset="26.085169"/></g><g stroke="#000000"><g fill="none"><path d="M386.077 15.315V8.696h4.41L396 3.18v17.65l-5.513-5.515z" stroke-width=".65"/><path d="M398 21.441c4.465-.943 7.664-4.878 7.676-9.441-.002-4.572-3.203-8.519-7.676-9.463" stroke-width=".64998"/><path d="M398 16.205c1.627-.77 2.668-2.405 2.676-4.205-.001-1.806-1.043-3.45-2.676-4.223" stroke-width=".64991"/></g><path d="M386.777 2.778l18.445 18.445" fill="#000000" stroke-width=".65" stroke-dasharray="25.298605063834973,0.7865640941367695" stroke-dashoffset="26.085169"/></g><g stroke="#000000"><g fill="none"><path d="M410.077 15.315V8.696h4.41L420 3.18v17.65l-5.513-5.515z" stroke-width=".65"/><path d="M422 21.441c4.465-.943 7.664-4.878 7.676-9.441-.002-4.572-3.203-8.519-7.676-9.463" stroke-width=".64998"/><path d="M422 16.205c1.627-.77 2.668-2.405 2.676-4.205-.001-1.806-1.043-3.45-2.676-4.223" stroke-width=".64991"/></g><path d="M410.777 2.778l18.445 18.445" fill="#000000" stroke-width=".65" stroke-dasharray="25.88702299168862,0.19814616628311876" stroke-dashoffset="26.085169"/></g><g stroke="#000000"><g fill="none"><path d="M434.077 15.315V8.696h4.41L444 3.18v17.65l-5.513-5.515z" stroke-width=".65"/><path d="M446 21.441c4.465-.943 7.664-4.878 7.676-9.441-.002-4.572-3.203-8.519-7.676-9.463" stroke-width=".64998"/><path d="M446 16.205c1.627-.77 2.668-2.405 2.676-4.205-.001-1.806-1.043-3.45-2.676-4.223" stroke-width=".64991"/></g><path d="M434.777 2.778l18.445 18.445" fill="#000000" stroke-width=".65"/></g></svg>