<svg xmlns="http://www.w3.org/2000/svg" viewBox="0 0 456 24" width="456" height="24"><path d="M12 9c1.65 0 3 1.35 3 3 0 .825-.338 1.575-.881 2.119-.544.543-1.294.881-2.119.881-1.65 0-3-1.35-3-3 0-.55.15-1.067.411-1.511.261-.445.633-.817 1.078-1.078C10.933 9.15 11.45 9 12 9m0-2c-.69 0-1.348.14-1.946.393-.598.253-1.136.619-1.589 1.072-.453.453-.819.991-1.072 1.589C7.14 10.652 7 11.31 7 12c0 2.76 2.24 5 5 5 .92 0 1.782-.249 2.523-.683.741-.434 1.36-1.053 1.794-1.794.434-.741.683-1.603.683-2.523 0-2.76-2.24-5-5-5M2 13c-.55 0-1-.45-1-1s.45-1 1-1h2c.55 0 1 .45 1 1s-.45 1-1 1H2m18 0c-.55 0-1-.45-1-1s.45-1 1-1h2c.55 0 1 .45 1 1s-.45 1-1 1h-2M11 2c0-.55.45-1 1-1s1 .45 1 1v2c0 .55-.45 1-1 1s-1-.45-1-1V2m0 18c0-.55.45-1 1-1s1 .45 1 1v2c0 .55-.45 1-1 1s-1-.45-1-1v-2M5.99 4.58l1.06 1.06c.39.38.38 1.02 0 1.41-.38.39-1.02.39-1.41 0L4.58 5.99c-.39-.38-.39-1.02 0-1.41.38-.39 1.02-.39 1.41 0m12.37 12.37l1.06 1.06c.39.38.39 1.02 0 1.41-.38.39-1.02.39-1.41 0l-1.06-1.06c-.39-.38-.39-1.02 0-1.41.38-.39 1.02-.39 1.41 0m0-9.9c-.38.39-1.02.38-1.41 0-.39-.38-.39-1.02 0-1.41l1.06-1.06c.38-.39 1.02-.39 1.41 0 .39.38.39 1.02 0 1.41l-1.06 1.06M7.05 18.36l-1.06 1.06c-.38.39-1.02.38-1.41 0-.39-.38-.39-1.02 0-1.41l1.06-1.06c.38-.39 1.02-.39 1.41 0 .39.38.39 1.02 0 1.41M35.979 8.989c1.638.03 3.002 1.394 3.032 3.032.005.819-.326 1.563-.861 2.101-.547.559-1.31.907-2.15.907-1.666 0-3.029-1.363-3.029-3.029 0-.567.162-1.098.44-1.547.259-.441.629-.811 1.07-1.07.44-.255.952-.399 1.498-.394m.015-1.985c-.686-.013-1.332.114-1.916.358-.597.251-1.135.614-1.588 1.064-.449.449-.812.984-1.064 1.578-.287.593-.455 1.275-.455 1.996 0 2.776 2.253 5.029 5.029 5.029.949 0 1.834-.276 2.57-.743.735-.434 1.35-1.052 1.78-1.791.424-.726.66-1.575.646-2.489-.01-2.74-2.244-4.968-4.991-4.975-.007-.007-.011-.017-.011-.027m-9.987 5.989c-.546 0-.993-.447-.993-.993s.447-.993.993-.993h1.986c.546 0 .993.447.993.993s-.447.993-.993.993h-1.986m18 0c-.546 0-.993-.447-.993-.993s.447-.993.993-.993h1.986c.546 0 .993.447.993.993s-.447.993-.993.993h-1.986m-9-10.986c0-.546.447-.993.993-.993s.993.447.993.993v1.986c0 .546-.447.993-.993.993s-.993-.447-.993-.993V2.007m0 18c0-.546.447-.993.993-.993s.993.447.993.993v1.986c0 .546-.447.993-.993.993s-.993-.447-.993-.993v-1.986M29.989 4.589l1.052 1.052c.387.378.377 1.013 0 1.4s-1.013.387-1.4 0l-1.052-1.052c-.387-.378-.387-1.013 0-1.4.377-.387 1.013-.387 1.4 0m12.37 12.37l1.052 1.052c.387.378.387 1.013 0 1.4-.377.387-1.013.387-1.4 0l-1.052-1.052c-.387-.378-.387-1.013 0-1.4.377-.387 1.013-.387 1.4 0m0-9.918c-.378.387-1.013.377-1.4 0s-.387-1.013 0-1.4l1.052-1.052c.378-.387 1.013-.387 1.4 0 .387.377.387 1.013 0 1.4l-1.052 1.052M31.041 18.359l-1.052 1.052c-.378.387-1.013.377-1.4 0s-.387-1.013 0-1.4l1.052-1.052c.378-.387 1.013-.387 1.4 0 .387.377.387 1.013 0 1.4M59.905 8.951c1.596.134 3.01 1.548 3.144 3.144.023.798-.282 1.521-.787 2.041-.56.609-1.368.995-2.262.995-1.722 0-3.131-1.409-3.131-3.131 0-.628.204-1.21.541-1.674.252-.43.612-.79 1.042-1.043.424-.231.921-.355 1.453-.332m.065-1.935c-.667-.059-1.274.024-1.807.236-.593.243-1.129.596-1.582 1.034-.438.437-.792.958-1.037 1.537-.408.578-.675 1.347-.675 2.177 0 2.832 2.299 5.131 5.131 5.131 1.053 0 2.019-.373 2.735-.956.717-.434 1.314-1.049 1.732-1.779.388-.672.576-1.477.517-2.366-.049-2.67-2.26-4.856-4.962-4.888-.032-.032-.052-.077-.052-.126m-9.937 5.951c-.532 0-.967-.435-.967-.967s.435-.967.967-.967h1.934c.532 0 .967.435.967.967s-.435.967-.967.967h-1.934m18 0c-.532 0-.967-.435-.967-.967s.435-.967.967-.967h1.934c.532 0 .967.435.967.967s-.435.967-.967.967h-1.934m-9-10.934c0-.532.435-.967.967-.967s.967.435.967.967v1.934c0 .532-.435.967-.967.967s-.967-.435-.967-.967V2.033m0 18c0-.532.435-.967.967-.967s.967.435.967.967v1.934c0 .532-.435.967-.967.967s-.967-.435-.967-.967v-1.934M53.984 4.621l1.025 1.025c.378.367.368.986 0 1.363-.367.378-.986.378-1.363 0l-1.025-1.025c-.378-.367-.378-.986 0-1.363.367-.378.986-.378 1.363 0m12.37 12.37l1.025 1.025c.378.367.378.986 0 1.363-.367.378-.986.378-1.363 0l-1.025-1.025c-.378-.367-.378-.986 0-1.363.367-.378.986-.378 1.363 0m0-9.982c-.367.378-.986.368-1.363 0-.378-.367-.378-.986 0-1.363l1.025-1.025c.367-.378.986-.378 1.363 0 .378.367.378.986 0 1.363l-1.025 1.025M55.009 18.354l-1.025 1.025c-.367.378-.986.368-1.363 0-.378-.367-.378-.986 0-1.363l1.025-1.025c.367-.378.986-.378 1.363 0 .378.367.378.986 0 1.363M83.753 8.872c1.51.348 3.027 1.865 3.375 3.375.058.755-.194 1.433-.637 1.915-.586.716-1.487 1.178-2.491 1.178-1.838 0-3.34-1.502-3.34-3.34 0-.753.291-1.44.748-1.935.239-.406.579-.747.986-.986.391-.184.856-.265 1.359-.207m.17-1.829c-.631-.154-1.157-.163-1.587-.015-.585.226-1.117.558-1.57.972-.414.414-.749.907-.981 1.454-.654.547-1.125 1.492-1.125 2.546 0 2.948 2.392 5.34 5.34 5.34 1.265 0 2.396-.57 3.074-1.39.678-.437 1.241-1.042 1.633-1.757.314-.562.405-1.275.25-2.116-.126-2.526-2.291-4.626-4.899-4.71-.083-.083-.135-.198-.135-.324m-9.838 5.872c-.503 0-.915-.412-.915-.915 0-.503.412-.915.915-.915h1.83c.503 0 .915.412.915.915 0 .503-.412.915-.915.915h-1.83m18 0c-.503 0-.915-.412-.915-.915 0-.503.412-.915.915-.915h1.83c.503 0 .915.412.915.915 0 .503-.412.915-.915.915h-1.83m-9-10.83c0-.503.412-.915.915-.915.503 0 .915.412.915.915v1.83c0 .503-.412.915-.915.915-.503 0-.915-.412-.915-.915v-1.83m0 18c0-.503.412-.915.915-.915.503 0 .915.412.915.915v1.83c0 .503-.412.915-.915.915-.503 0-.915-.412-.915-.915v-1.83m-5.11-15.4l.97.97c.357.348.348.933 0 1.29s-.933.357-1.29 0l-.97-.97c-.357-.348-.357-.933 0-1.29.348-.357.933-.357 1.29 0m12.37 12.37l.97.97c.357.348.357.933 0 1.29-.348.357-.933.357-1.29 0l-.97-.97c-.357-.348-.357-.933 0-1.29.348-.357.933-.357 1.29 0m0-10.11c-.348.357-.933.348-1.29 0s-.357-.933 0-1.29l.97-.97c.348-.357.933-.357 1.29 0 .357.348.357.933 0 1.29l-.97.97m-11.4 11.4l-.97.97c-.348.357-.933.348-1.29 0s-.357-.933 0-1.29l.97-.97c.348-.357.933-.357 1.29 0 .357.348.357.933 0 1.29M107.492 8.737c1.361.715 3.056 2.41 3.771 3.771.119.68-.042 1.283-.379 1.7-.63.897-1.69 1.493-2.884 1.493-2.037 0-3.701-1.664-3.701-3.701 0-.967.441-1.834 1.105-2.383.215-.367.522-.674.889-.889.335-.104.745-.11 1.199.009m.35-1.649c-.569-.317-.955-.484-1.209-.447-.57.198-1.095.493-1.549.867-.373.373-.675.817-.884 1.311-1.079.493-1.901 1.741-1.901 3.181 0 3.147 2.554 5.701 5.701 5.701 1.629 0 3.047-.912 3.658-2.14.611-.439 1.114-1.03 1.462-1.718.186-.371.111-.927-.208-1.685-.261-2.277-2.345-4.23-4.792-4.402-.172-.171-.278-.407-.278-.668m-9.667 5.737c-.453 0-.825-.371-.825-.825 0-.454.372-.825.825-.825h1.65c.453 0 .825.371.825.825 0 .454-.372.825-.825.825h-1.65m18 0c-.453 0-.825-.371-.825-.825 0-.454.372-.825.825-.825h1.65c.453 0 .825.371.825.825 0 .454-.372.825-.825.825h-1.65m-9-10.65c0-.453.371-.825.825-.825.454 0 .825.372.825.825v1.65c0 .453-.371.825-.825.825-.454 0-.825-.372-.825-.825v-1.65m0 18c0-.453.371-.825.825-.825.454 0 .825.372.825.825v1.65c0 .453-.371.825-.825.825-.454 0-.825-.372-.825-.825v-1.65m-5.216-15.379l.875.875c.321.313.313.841 0 1.163-.314.321-.842.321-1.163 0l-.875-.875c-.321-.313-.321-.841 0-1.163.314-.321.842-.321 1.163 0m12.37 12.37l.875.875c.321.313.321.841 0 1.163-.314.321-.842.321-1.163 0l-.875-.875c-.321-.313-.321-.841 0-1.163.314-.321.842-.321 1.163 0m0-10.332c-.313.321-.841.313-1.163 0-.321-.314-.321-.842 0-1.163l.875-.875c.313-.321.841-.321 1.163 0 .321.314.321.842 0 1.163l-.875.875m-11.495 11.495l-.875.875c-.313.321-.841.313-1.163 0-.321-.314-.321-.842 0-1.163l.875-.875c.313-.321.841-.321 1.163 0 .321.314.321.842 0 1.163M131.109 8.539c1.144 1.253 3.099 3.208 4.352 4.352.209.571.181 1.063 0 1.385-.696 1.163-1.989 1.953-3.461 1.953-2.329 0-4.229-1.9-4.229-4.229 0-1.281.66-2.413 1.627-3.04.181-.308.439-.566.747-.747.253.016.583.117.964.326m.615-1.385c-.478-.556-.661-.954-.654-1.079-.55.156-1.064.398-1.519.711-.314.314-.568.687-.743 1.102-1.702.414-3.037 2.107-3.037 4.112 0 3.439 2.79 6.229 6.229 6.229 2.164 0 3.999-1.411 4.512-3.238.514-.442.93-1.012 1.213-1.661-.001-.092-.32-.416-.879-1.054-.457-1.912-2.424-3.65-4.636-3.95-.301-.3-.486-.715-.486-1.172m-9.417 5.539c-.381 0-.693-.312-.693-.693 0-.381.312-.693.693-.693h1.386c.381 0 .693.312.693.693 0 .381-.312.693-.693.693h-1.386m18 0c-.381 0-.693-.312-.693-.693 0-.381.312-.693.693-.693h1.386c.381 0 .693.312.693.693 0 .381-.312.693-.693.693h-1.386m-9-10.386c0-.381.312-.693.693-.693.381 0 .693.312.693.693v1.386c0 .381-.312.693-.693.693-.381 0-.693-.312-.693-.693V2.307m0 18c0-.381.312-.693.693-.693.381 0 .693.312.693.693v1.386c0 .381-.312.693-.693.693-.381 0-.693-.312-.693-.693v-1.386m-5.371-15.348l.735.735c.27.263.263.706 0 .977-.264.27-.707.27-.977 0l-.735-.735c-.27-.263-.27-.706 0-.977.264-.27.707-.27.977 0m12.37 12.37l.735.735c.27.263.27.706 0 .977-.264.27-.707.27-.977 0l-.735-.735c-.27-.263-.27-.706 0-.977.264-.27.707-.27.977 0m0-10.658c-.263.27-.706.263-.977 0-.27-.264-.27-.707 0-.977l.735-.735c.263-.27.706-.27.977 0 .27.264.27.707 0 .977l-.735.735m-11.635 11.635l-.735.735c-.263.27-.706.263-.977 0-.27-.264-.27-.707 0-.977l.735-.735c.263-.27.706-.27.977 0 .27.264.27.707 0 .977M154.674 8.314c.896 1.866 3.146 4.116 5.012 5.012.311.448.434.814.432 1.027-.771 1.465-2.33 2.476-4.118 2.476-2.661 0-4.829-2.168-4.829-4.829 0-1.638.909-3.071 2.221-3.788.142-.241.344-.443.585-.585.159.151.398.376.697.687m.914-1.085c-.374-.828-.324-1.488-.022-1.799-.526.11-1.029.291-1.485.536-.245.246-.444.538-.581.863-2.41.324-4.329 2.524-4.329 5.171 0 3.771 3.058 6.829 6.829 6.829 2.772 0 5.083-1.978 5.485-4.486.402-.446.719-.992.928-1.596-.213.225-.809.164-1.642-.335-.681-1.498-2.514-2.991-4.459-3.438-.447-.447-.724-1.064-.724-1.745m-9.131 5.314c-.298 0-.542-.244-.542-.543 0-.299.244-.543.542-.543h1.086c.298 0 .542.244.542.543 0 .299-.244.543-.542.543h-1.086m18 0c-.298 0-.542-.244-.542-.543 0-.299.244-.543.542-.543h1.086c.298 0 .542.244.542.543 0 .299-.244.543-.542.543h-1.086m-9-10.086c0-.298.244-.542.543-.542.299 0 .543.244.543.542v1.086c0 .298-.244.542-.543.542-.299 0-.543-.244-.543-.542V2.457m0 18c0-.298.244-.542.543-.542.299 0 .543.244.543.542v1.086c0 .298-.244.542-.543.542-.299 0-.543-.244-.543-.542v-1.086M149.91 5.145l.575.575c.212.206.207.554 0 .765-.206.212-.553.212-.765 0l-.575-.575c-.212-.206-.212-.554 0-.765.206-.212.553-.212.765 0m12.37 12.37l.575.575c.212.206.212.554 0 .765-.206.212-.553.212-.765 0l-.575-.575c-.212-.206-.212-.554 0-.765.206-.212.553-.212.765 0m0-11.03c-.206.212-.554.207-.765 0-.212-.206-.212-.553 0-.765l.575-.575c.206-.212.554-.212.765 0 .212.206.212.553 0 .765l-.575.575M150.485 18.28l-.575.575c-.206.212-.554.207-.765 0-.212-.206-.212-.553 0-.765l.575-.575c.206-.212.554-.212.765 0 .212.206.212.553 0 .765M178.288 8.114c.676 2.409 3.189 4.922 5.598 5.598.401.338.658.592.813.709-.836 1.734-2.631 2.941-4.699 2.941-2.955 0-5.362-2.407-5.362-5.362 0-1.955 1.13-3.655 2.749-4.451.107-.182.259-.334.441-.441.076.271.235.605.46 1.006m1.181-.819c-.283-1.068-.027-1.962.537-2.436-.505.068-.997.194-1.454.38-.185.185-.335.406-.439.651-3.038.245-5.475 2.893-5.475 6.11 0 4.065 3.297 7.362 7.362 7.362 3.311 0 6.044-2.482 6.347-5.594.303-.449.533-.974.676-1.537-.401.505-1.244.677-2.318.3-.88-1.13-2.594-2.405-4.302-2.982-.577-.577-.934-1.374-.934-2.254m-8.879 5.115c-.225 0-.409-.185-.409-.41 0-.225.184-.41.409-.41h.82c.225 0 .409.185.409.41 0 .225-.184.41-.409.41h-.82m18 0c-.225 0-.409-.185-.409-.41 0-.225.184-.41.409-.41h.82c.225 0 .409.185.409.41 0 .225-.184.41-.409.41h-.82m-9-9.82c0-.225.185-.409.41-.409.225 0 .41.184.41.409v.82c0 .225-.185.409-.41.409-.225 0-.41-.184-.41-.409v-.82m0 18c0-.225.185-.409.41-.409.225 0 .41.184.41.409v.82c0 .225-.185.409-.41.409-.225 0-.41-.184-.41-.409v-.82m-5.703-15.281l.434.434c.16.156.156.418 0 .578-.156.16-.418.16-.578 0l-.434-.434c-.16-.156-.16-.418 0-.578.156-.16.418-.16.578 0m12.37 12.37l.434.434c.16.156.16.418 0 .578-.156.16-.418.16-.578 0l-.434-.434c-.16-.156-.16-.418 0-.578.156-.16.418-.16.578 0m0-11.358c-.156.16-.418.156-.578 0-.16-.156-.16-.418 0-.578l.434-.434c.156-.16.418-.16.578 0 .16.156.16.418 0 .578l-.434.434m-11.936 11.936l-.434.434c-.156.16-.418.156-.578 0-.16-.156-.16-.418 0-.578l.434-.434c.156-.16.418-.16.578 0 .16.156.16.418 0 .578M201.984 7.957c.503 2.837 3.222 5.556 6.059 6.059.473.252.836.418 1.115.458-.889 1.946-2.87 3.307-5.158 3.307-3.186 0-5.781-2.595-5.781-5.781 0-2.205 1.304-4.114 3.164-4.973.079-.135.193-.248.328-.328.01.365.105.785.273 1.258m1.39-.609c-.21-1.259.208-2.335.979-2.94-.489.036-.973.12-1.43.258-.138.137-.25.302-.327.484-3.532.182-6.377 3.184-6.377 6.85 0 4.296 3.485 7.781 7.781 7.781 3.736 0 6.8-2.878 7.026-6.465.226-.452.387-.961.477-1.493-.549.727-1.585 1.083-2.851.803-1.036-.841-2.657-1.945-4.178-2.624-.679-.68-1.1-1.618-1.1-2.654m-8.679 4.957c-.167 0-.305-.137-.305-.305 0-.168.138-.305.305-.305h.61c.167 0 .305.137.305.305 0 .168-.138.305-.305.305h-.61m18 0c-.167 0-.305-.137-.305-.305 0-.168.138-.305.305-.305h.61c.167 0 .305.137.305.305 0 .168-.138.305-.305.305h-.61m-9-9.61c0-.167.137-.305.305-.305.168 0 .305.138.305.305v.61c0 .167-.137.305-.305.305-.168 0-.305-.138-.305-.305v-.61m0 18c0-.167.137-.305.305-.305.168 0 .305.138.305.305v.61c0 .167-.137.305-.305.305-.168 0-.305-.138-.305-.305v-.61m-5.827-15.256l.323.323c.119.115.116.311 0 .429-.115.119-.31.119-.429 0l-.323-.323c-.119-.115-.119-.311 0-.429.115-.119.31-.119.429 0m12.37 12.37l.323.323c.119.115.119.311 0 .429-.115.119-.31.119-.429 0l-.323-.323c-.119-.115-.119-.311 0-.429.115-.119.31-.119.429 0m0-11.618c-.115.119-.311.116-.429 0-.119-.115-.119-.31 0-.429l.323-.323c.115-.119.311-.119.429 0 .119.115.119.31 0 .429l-.323.323m-12.047 12.047l-.323.323c-.115.119-.311.116-.429 0-.119-.115-.119-.31 0-.429l.323-.323c.115-.119.311-.119.429 0 .119.115.119.31 0 .429M225.751 7.837c.37 3.164 3.248 6.042 6.412 6.412.528.185.972.284 1.346.266-.929 2.108-3.051 3.587-5.509 3.587-3.364 0-6.102-2.738-6.102-6.102 0-2.396 1.437-4.466 3.481-5.373.059-.099.142-.183.242-.241-.04.437.006.923.13 1.451m1.551-.449c-.155-1.404.388-2.621 1.316-3.324-.475.01-.953.061-1.411.163-.102.101-.184.222-.241.356-3.911.135-7.068 3.408-7.068 7.417 0 4.474 3.628 8.102 8.102 8.102 4.061 0 7.38-3.181 7.546-7.133.167-.454.275-.95.325-1.458-.662.897-1.847 1.393-3.259 1.187-1.155-.619-2.705-1.591-4.083-2.35-.758-.758-1.227-1.805-1.227-2.96m-8.526 4.836c-.124 0-.225-.101-.225-.224s.101-.224.225-.224h.448c.124 0 .225.101.225.224s-.101.224-.225.224h-.448m18 0c-.124 0-.225-.101-.225-.224s.101-.224.225-.224h.448c.124 0 .225.101.225.224s-.101.224-.225.224h-.448m-9-9.448c0-.124.101-.225.224-.225s.224.101.224.225v.448c0 .124-.101.225-.224.225s-.224-.101-.224-.225v-.448m0 18c0-.124.101-.225.224-.225s.224.101.224.225v.448c0 .124-.101.225-.224.225s-.224-.101-.224-.225v-.448m-5.922-15.238l.238.238c.088.085.085.229 0 .316-.085.088-.229.088-.316 0l-.238-.238c-.088-.085-.088-.229 0-.316.085-.088.229-.088.316 0m12.37 12.37l.238.238c.088.085.088.229 0 .316-.085.088-.229.088-.316 0l-.238-.238c-.088-.085-.088-.229 0-.316.085-.088.229-.088.316 0m0-11.816c-.085.088-.229.085-.316 0-.088-.085-.088-.229 0-.316l.238-.238c.085-.088.229-.088.316 0 .088.085.088.229 0 .316l-.238.238m-12.132 12.132l-.238.238c-.085.088-.229.085-.316 0-.088-.085-.088-.229 0-.316l.238-.238c.085-.088.229-.088.316 0 .088.085.088.229 0 .316M249.572 7.744c.269 3.416 3.268 6.415 6.684 6.684.569.134 1.075.181 1.522.119-.959 2.231-3.191 3.802-5.778 3.802-3.5 0-6.349-2.849-6.349-6.349 0-2.542 1.54-4.736 3.726-5.679.042-.072.103-.133.175-.176-.078.494-.069 1.03.02 1.599m1.675-.325c-.113-1.516.525-2.841 1.575-3.62-.466-.009-.939.017-1.398.091-.073.074-.133.162-.174.259-4.202.097-7.599 3.578-7.599 7.851 0 4.61 3.739 8.349 8.349 8.349 4.31 0 7.824-3.415 7.945-7.646.121-.456.188-.942.209-1.431-.75 1.027-2.049 1.631-3.573 1.481-1.247-.449-2.742-1.32-4.01-2.139-.818-.818-1.324-1.948-1.324-3.195m-8.41 4.744c-.089 0-.163-.073-.163-.163 0-.09.074-.163.163-.163h.326c.089 0 .163.073.163.163 0 .09-.074.163-.163.163h-.326m18 0c-.089 0-.163-.073-.163-.163 0-.09.074-.163.163-.163h.326c.089 0 .163.073.163.163 0 .09-.074.163-.163.163h-.326m-9-9.326c0-.089.073-.163.163-.163.09 0 .163.074.163.163v.326c0 .089-.073.163-.163.163-.09 0-.163-.074-.163-.163v-.326m0 18c0-.089.073-.163.163-.163.09 0 .163.074.163.163v.326c0 .089-.073.163-.163.163-.09 0-.163-.074-.163-.163v-.326m-5.993-15.223l.172.172c.064.062.062.167 0 .23-.062.064-.166.064-.23 0l-.172-.172c-.064-.062-.064-.167 0-.23.062-.064.166-.064.23 0m12.37 12.37l.172.172c.064.062.064.167 0 .23-.062.064-.166.064-.23 0l-.172-.172c-.064-.062-.064-.167 0-.23.062-.064.166-.064.23 0m0-11.968c-.062.064-.167.062-.23 0-.064-.062-.064-.166 0-.23l.172-.172c.062-.064.167-.064.23 0 .064.062.064.166 0 .23l-.172.172m-12.198 12.198l-.172.172c-.062.064-.167.062-.23 0-.064-.062-.064-.166 0-.23l.172-.172c.062-.064.167-.064.23 0 .064.062.064.166 0 .23M273.435 7.673c.191 3.609 3.283 6.701 6.892 6.892.601.095 1.155.102 1.658.006-.983 2.327-3.298 3.967-5.985 3.967-3.605 0-6.538-2.933-6.538-6.538 0-2.655 1.618-4.944 3.913-5.915.03-.051.073-.094.124-.124-.108.536-.127 1.111-.064 1.712m1.769-.231c-.08-1.601.631-3.008 1.774-3.846-.458-.024-.927-.017-1.386.035-.053.053-.095.115-.124.184-4.425.069-8.006 3.709-8.006 8.185 0 4.715 3.823 8.538 8.538 8.538 4.502 0 8.166-3.593 8.252-8.039.085-.457.121-.936.119-1.41-.817 1.126-2.204 1.813-3.813 1.707-1.318-.319-2.771-1.113-3.954-1.977-.865-.865-1.4-2.059-1.4-3.377m-8.32 4.674c-.063 0-.115-.052-.115-.116s.052-.116.115-.116h.232c.063 0 .115.052.115.116s-.052.116-.115.116h-.232m18 0c-.063 0-.115-.052-.115-.116s.052-.116.115-.116h.232c.063 0 .115.052.115.116s-.052.116-.115.116h-.232m-9-9.232c0-.063.052-.115.116-.115s.116.052.116.115v.232c0 .063-.052.115-.116.115s-.116-.052-.116-.115v-.232m0 18c0-.063.052-.115.116-.115s.116.052.116.115v.232c0 .063-.052.115-.116.115s-.116-.052-.116-.115v-.232m-6.049-15.212l.123.123c.045.044.044.118 0 .163-.044.045-.118.045-.163 0l-.123-.123c-.045-.044-.045-.118 0-.163.044-.045.118-.045.163 0m12.37 12.37l.123.123c.045.044.045.118 0 .163-.044.045-.118.045-.163 0l-.123-.123c-.045-.044-.045-.118 0-.163.044-.045.118-.045.163 0m0-12.084c-.044.045-.118.044-.163 0-.045-.044-.045-.118 0-.163l.123-.123c.044-.045.118-.045.163 0 .045.044.045.118 0 .163l-.123.123m-12.247 12.247l-.123.123c-.044.045-.118.044-.163 0-.045-.044-.045-.118 0-.163l.123-.123c.044-.045.118-.045.163 0 .045.044.045.118 0 .163M297.33 7.619c.13 3.757 3.294 6.921 7.051 7.051.626.066 1.216.042 1.763-.081-1.001 2.401-3.381 4.094-6.144 4.094-3.685 0-6.683-2.998-6.683-6.683 0-2.741 1.678-5.103 4.056-6.096.021-.035.05-.064.086-.085-.131.569-.173 1.174-.129 1.8m1.841-.159c-.054-1.666.713-3.138 1.927-4.02-.452-.035-.919-.043-1.378-.007-.036.036-.065.078-.085.126-4.596.047-8.318 3.81-8.318 8.441 0 4.795 3.888 8.683 8.683 8.683 4.649 0 8.428-3.73 8.487-8.341.059-.458.071-.931.05-1.394-.868 1.202-2.322 1.954-3.997 1.881-1.372-.219-2.793-.953-3.912-1.854-.9-.9-1.457-2.143-1.457-3.515m-8.25 4.619c-.044 0-.079-.035-.079-.079s.035-.079.079-.079h.158c.044 0 .079.035.079.079s-.035.079-.079.079h-.158m18 0c-.044 0-.079-.035-.079-.079s.035-.079.079-.079h.158c.044 0 .079.035.079.079s-.035.079-.079.079h-.158m-9-9.158c0-.044.035-.079.079-.079s.079.035.079.079v.158c0 .044-.035.079-.079.079s-.079-.035-.079-.079v-.158m0 18c0-.044.035-.079.079-.079s.079.035.079.079v.158c0 .044-.035.079-.079.079s-.079-.035-.079-.079v-.158m-6.092-15.204l.084.084c.031.03.03.081 0 .112s-.081.031-.112 0l-.084-.084c-.031-.03-.031-.081 0-.112.03-.031.081-.031.112 0m12.37 12.37l.084.084c.031.03.031.081 0 .112-.03.031-.081.031-.112 0l-.084-.084c-.031-.03-.031-.081 0-.112.03-.031.081-.031.112 0m0-12.174c-.03.031-.081.03-.112 0s-.031-.081 0-.112l.084-.084c.03-.031.081-.031.112 0 .031.03.031.081 0 .112l-.084.084m-12.286 12.286l-.084.084c-.03.031-.081.03-.112 0s-.031-.081 0-.112l.084-.084c.03-.031.081-.031.112 0 .031.03.031.081 0 .112M321.25 7.577c.085 3.87 3.303 7.088 7.173 7.173.644.043 1.262-.004 1.841-.146-1.014 2.455-3.443 4.189-6.264 4.189-3.746 0-6.793-3.047-6.793-6.793 0-2.807 1.724-5.224 4.165-6.233.014-.023.033-.042.056-.055-.148.593-.207 1.221-.178 1.865m1.896-.103c-.035-1.716.775-3.236 2.043-4.152-.448-.044-.912-.063-1.372-.04-.023.024-.042.052-.055.082-4.726.031-8.555 3.887-8.555 8.636 0 4.856 3.937 8.793 8.793 8.793 4.761 0 8.627-3.834 8.665-8.57.039-.459.033-.927-.002-1.382-.907 1.261-2.411 2.06-4.137 2.013-1.413-.143-2.809-.833-3.879-1.76-.927-.927-1.501-2.207-1.501-3.62m-8.198 4.578c-.028 0-.051-.024-.051-.052 0-.028.023-.052.051-.052h.104c.028 0 .051.024.051.052 0 .028-.023.052-.051.052h-.104m18 0c-.028 0-.051-.024-.051-.052 0-.028.023-.052.051-.052h.104c.028 0 .051.024.051.052 0 .028-.023.052-.051.052h-.104m-9-9.104c0-.028.024-.051.052-.051.028 0 .052.023.052.051v.104c0 .028-.024.051-.052.051-.028 0-.052-.023-.052-.051v-.104m0 18c0-.028.024-.051.052-.051.028 0 .052.023.052.051v.104c0 .028-.024.051-.052.051-.028 0-.052-.023-.052-.051v-.104m-6.124-15.197l.055.055c.02.02.019.053 0 .073-.02.02-.053.02-.073 0l-.055-.055c-.02-.02-.02-.053 0-.073.02-.02.053-.02.073 0m12.37 12.37l.055.055c.02.02.02.053 0 .073-.02.02-.053.02-.073 0l-.055-.055c-.02-.02-.02-.053 0-.073.02-.02.053-.02.073 0m0-12.242c-.02.02-.053.019-.073 0-.02-.02-.02-.053 0-.073l.055-.055c.02-.02.053-.02.073 0 .02.02.02.053 0 .073l-.055.055m-12.315 12.315l-.055.055c-.02.02-.053.019-.073 0-.02-.02-.02-.053 0-.073l.055-.055c.02-.02.053-.02.073 0 .02.02.02.053 0 .073M345.191 7.547c.051 3.952 3.31 7.211 7.262 7.262.659.026 1.298-.038 1.901-.195-1.025 2.497-3.49 4.261-6.354 4.261-3.791 0-6.875-3.084-6.875-6.875 0-2.856 1.758-5.313 4.246-6.335.008-.013.02-.025.034-.033-.161.612-.232 1.256-.214 1.915m1.937-.063c-.021-1.753.82-3.309 2.129-4.25-.445-.05-.908-.078-1.367-.063-.014.014-.026.03-.034.049-4.823.019-8.731 3.944-8.731 8.78 0 4.901 3.974 8.875 8.875 8.875 4.844 0 8.775-3.912 8.798-8.74.023-.459.004-.924-.041-1.374-.936 1.304-2.478 2.14-4.241 2.111-1.444-.086-2.822-.742-3.855-1.689-.947-.947-1.533-2.255-1.533-3.699m-8.159 4.547c-.017 0-.031-.014-.031-.031s.014-.031.031-.031h.062c.017 0 .031.014.031.031s-.014.031-.031.031h-.062m18 0c-.017 0-.031-.014-.031-.031s.014-.031.031-.031h.062c.017 0 .031.014.031.031s-.014.031-.031.031h-.062m-9-9.062c0-.017.014-.031.031-.031s.031.014.031.031v.062c0 .017-.014.031-.031.031s-.031-.014-.031-.031v-.062m0 18c0-.017.014-.031.031-.031s.031.014.031.031v.062c0 .017-.014.031-.031.031s-.031-.014-.031-.031v-.062M341.82 5.776l.034.034c.012.011.011.031 0 .044-.012.012-.032.012-.044 0l-.034-.034c-.012-.011-.012-.031 0-.044.012-.012.032-.012.044 0m12.37 12.37l.034.034c.012.011.012.031 0 .044-.012.012-.032.012-.044 0l-.034-.034c-.012-.011-.012-.031 0-.044.012-.012.032-.012.044 0m0-12.292c-.011.012-.031.011-.044 0-.012-.012-.012-.032 0-.044l.034-.034c.011-.012.031-.012.044 0 .012.012.012.032 0 .044l-.034.034M341.854 18.19l-.034.034c-.011.012-.031.011-.044 0-.012-.012-.012-.032 0-.044l.034-.034c.011-.012.031-.012.044 0 .012.012.012.032 0 .044M369.148 7.525c.028 4.012 3.315 7.299 7.327 7.327.669.013 1.322-.063 1.942-.231-1.031 2.527-3.522 4.312-6.417 4.312-3.823 0-6.933-3.11-6.933-6.933 0-2.89 1.782-5.377 4.304-6.407.004-.008.01-.014.018-.018-.17.625-.25 1.281-.241 1.95m1.967-.033c-.012-1.78.853-3.361 2.19-4.321-.443-.054-.904-.088-1.364-.08-.007.007-.013.016-.018.026-4.891.01-8.856 3.984-8.856 8.883 0 4.933 4 8.933 8.933 8.933 4.903 0 8.88-3.967 8.892-8.861.013-.46-.016-.922-.068-1.367-.957 1.334-2.526 2.195-4.316 2.18-1.465-.046-2.83-.678-3.837-1.639-.961-.962-1.556-2.289-1.556-3.754m-8.132 4.525c-.009 0-.016-.008-.016-.017 0-.009.007-.017.016-.017h.034c.009 0 .016.008.016.017 0 .009-.007.017-.016.017h-.034m18 0c-.009 0-.016-.008-.016-.017 0-.009.007-.017.016-.017h.034c.009 0 .016.008.016.017 0 .009-.007.017-.016.017h-.034m-9-9.034c0-.009.008-.016.017-.016.009 0 .017.007.017.016v.034c0 .009-.008.016-.017.016-.009 0-.017-.007-.017-.016v-.034m0 18c0-.009.008-.016.017-.016.009 0 .017.007.017.016v.034c0 .009-.008.016-.017.016-.009 0-.017-.007-.017-.016v-.034m-6.165-15.189l.018.018c.006.006.006.017 0 .024-.007.006-.017.006-.024 0l-.018-.018c-.006-.006-.006-.017 0-.024.007-.006.017-.006.024 0m12.37 12.37l.018.018c.006.006.006.017 0 .024-.007.006-.017.006-.024 0l-.018-.018c-.006-.006-.006-.017 0-.024.007-.006.017-.006.024 0m0-12.328c-.006.006-.017.006-.024 0-.006-.007-.006-.017 0-.024l.018-.018c.006-.006.017-.006.024 0 .006.007.006.017 0 .024l-.018.018m-12.352 12.352l-.018.018c-.006.006-.017.006-.024 0-.006-.007-.006-.017 0-.024l.018-.018c.006-.006.017-.006.024 0 .006.007.006.017 0 .024M393.12 7.511c.012 4.051 3.318 7.357 7.369 7.369.676.005 1.339-.079 1.97-.254-1.036 2.546-3.544 4.346-6.459 4.346-3.844 0-6.972-3.128-6.972-6.972 0-2.913 1.798-5.419 4.342-6.455.002-.003.005-.006.008-.008-.176.634-.261 1.298-.258 1.974m1.986-.015c-.005-1.797.875-3.394 2.231-4.366-.441-.058-.902-.095-1.362-.092-.003.004-.006.007-.007.012-4.937.004-8.94 4.01-8.94 8.95 0 4.954 4.018 8.972 8.972 8.972 4.941 0 8.949-4.004 8.954-8.942.006-.459-.03-.921-.086-1.363-.97 1.355-2.557 2.233-4.364 2.227-1.48-.02-2.836-.636-3.826-1.607-.971-.971-1.572-2.311-1.572-3.791m-8.113 4.511c-.004 0-.007-.003-.007-.007s.003-.007.007-.007h.014c.004 0 .007.003.007.007s-.003.007-.007.007h-.014m18 0c-.004 0-.007-.003-.007-.007s.003-.007.007-.007h.014c.004 0 .007.003.007.007s-.003.007-.007.007h-.014m-9-9.014c0-.004.003-.007.007-.007s.007.003.007.007v.014c0 .004-.003.007-.007.007s-.007-.003-.007-.007v-.014m0 18c0-.004.003-.007.007-.007s.007.003.007.007v.014c0 .004-.003.007-.007.007s-.007-.003-.007-.007v-.014m-6.177-15.187l.008.008c.002.002.002.007 0 .01-.003.002-.007.002-.01 0l-.008-.008c-.002-.002-.002-.007 0-.01.003-.002.007-.002.01 0m12.37 12.37l.008.008c.002.002.002.007 0 .01-.003.002-.007.002-.01 0l-.008-.008c-.002-.002-.002-.007 0-.01.003-.002.007-.002.01 0m0-12.352c-.002.002-.007.002-.01 0-.002-.003-.002-.007 0-.01l.008-.008c.002-.002.007-.002.01 0 .002.003.002.007 0 .01l-.008.008m-12.362 12.362l-.008.008c-.002.002-.007.002-.01 0-.002-.003-.002-.007 0-.01l.008-.008c.002-.002.007-.002.01 0 .002.003.002.007 0 .01M417.105 7.503c.003 4.073 3.319 7.389 7.392 7.392.679.002 1.348-.087 1.986-.266-1.04 2.557-3.557 4.364-6.483 4.364-3.856 0-6.993-3.137-6.993-6.993 0-2.926 1.807-5.443 4.363-6.482.001 0 .001-.001.002-.001-.179.638-.268 1.307-.267 1.986m1.997-.004c-.002-1.807.886-3.414 2.252-4.392-.44-.059-.9-.099-1.36-.098-.001.001-.001.002-.002.003-4.962.001-8.985 4.025-8.985 8.988 0 4.966 4.027 8.993 8.993 8.993 4.963 0 8.988-4.023 8.989-8.986.001-.46-.038-.92-.097-1.36-.977 1.366-2.574 2.253-4.391 2.251-1.488-.004-2.839-.612-3.82-1.588-.976-.976-1.579-2.323-1.579-3.811m-8.104 4.503c-.001 0-.001-.001-.001-.002s0-.002.001-.002h.004c.001 0 .001.001.001.002s0 .002-.001.002h-.004m18 0c-.001 0-.001-.001-.001-.002s0-.002.001-.002h.004c.001 0 .001.001.001.002s0 .002-.001.002h-.004m-9-9.004c0-.001.001-.001.002-.001s.002 0 .002.001v.004c0 .001-.001.001-.002.001s-.002 0-.002-.001v-.004m0 18c0-.001.001-.001.002-.001s.002 0 .002.001v.004c0 .001-.001.001-.002.001s-.002 0-.002-.001v-.004m-6.183-15.185l.002.002c.001 0 .001.001 0 .002s-.002.001-.002 0l-.002-.002c-.001 0-.001-.001 0-.002s.002-.001.002 0m12.37 12.37l.002.002c.001 0 .001.001 0 .002s-.002.001-.002 0l-.002-.002c-.001 0-.001-.001 0-.002s.002-.001.002 0m0-12.366c0 .001-.001.001-.002 0s-.001-.002 0-.002l.002-.002c0-.001.001-.001.002 0s.001.002 0 .002l-.002.002m-12.368 12.368l-.002.002c0 .001-.001.001-.002 0s-.001-.002 0-.002l.002-.002c0-.001.001-.001.002 0s.001.002 0 .002M441.1 7.5c0 4.08 3.32 7.4 7.4 7.4.68 0 1.35-.09 1.99-.27-1.04 2.56-3.56 4.37-6.49 4.37-3.86 0-7-3.14-7-7 0-2.93 1.81-5.45 4.37-6.49-.18.64-.27 1.31-.27 1.99m2 0c0-1.81.89-3.42 2.26-4.4-.44-.06-.9-.1-1.36-.1-4.97 0-9 4.03-9 9s4.03 9 9 9 9-4.03 9-9c0-.46-.04-.92-.1-1.36-.98 1.37-2.58 2.26-4.4 2.26-1.49 0-2.84-.605-3.818-1.582-.977-.978-1.582-2.328-1.582-3.818M437.815 18.185" fill="#000000"/></svg>