<svg xmlns="http://www.w3.org/2000/svg" viewBox="0 0 456 24" width="456" height="24"><path d="M12 4L9.5 6.5 7 9H3v6h4l5 5v-1.778V14.667 4m-2 4.83v6.34L7.83 13H5v-2h2.83L10 8.83M19 12c0 3.17-2.11 5.85-5 6.71v2.06c4.01-.91 7-4.49 7-8.77 0-4.28-2.99-7.86-7-8.77v2.06c1.445.43 2.695 1.315 3.584 2.489C18.473 8.953 19 10.415 19 12m-5-4.03c1.48.74 2.5 2.26 2.5 4.03 0 1.77-1.02 3.29-2.5 4.02V7.97m.625 1.875M35.935 4.036l-2.453 2.482-2.48 2.48-4.003-.032.011-.01v5.957l4.091.121 4.954 4.974-.015-1.78c-.007-.582-.016-1.166-.026-1.752v-1.78c.006-.59.011-1.181.016-1.773L36 11.128V9.41l-.036-1.801-.029-1.765V4.036M34 8.849v6.321L31.83 13H29v-2h2.83l2.161-2.161.009.01M43 12c0 3.153-2.096 5.819-4.967 6.678l.011 2.057C42.029 19.823 45 16.259 45 12c0-4.265-2.974-7.833-6.964-8.747-.009-.012-.022-.02-.036-.023v2.06c1.455.433 2.712 1.331 3.594 2.519C42.476 8.974 43 10.426 43 12m-5.014-4.059c1.467.737 2.477 2.249 2.475 4.008l-.007.007c.002 1.759-1.008 3.271-2.475 3.998l.007-3.99V7.941m.653 1.92l-.001.001-.018-.018v-.013c.011.006.019.017.019.03M59.705 4.164l-2.287 2.418L55.01 8.99l-4.012-.143.046-.046v5.803l4.418.549 4.789 4.882-.067-1.787c-.034-.546-.074-1.099-.118-1.662v-1.787c.026-.581.05-1.167.071-1.756L60 11.187V9.683L59.836 7.8l-.131-1.72V4.164M58 8.915v6.255L55.83 13H53v-2h2.83l2.128-2.128.042.043M67 12c0 3.093-2.046 5.711-4.849 6.567l.05 2.042C66.098 19.691 69 16.185 69 12c0-4.21-2.916-7.737-6.836-8.668-.041-.05-.098-.087-.164-.102v2.06c1.492.444 2.771 1.388 3.63 2.627C66.49 9.052 67 10.467 67 12m-5.066-4.16c1.422.726 2.398 2.206 2.388 3.928l-.031.031c.01 1.722-.966 3.203-2.387 3.919l.03-3.862V7.84m.753 2.076c0 .002-.001.005-.001.008l-.082-.082v-.059c.049.025.083.075.083.133M83.234 4.426l-1.947 2.287-2.262 2.261-4.031-.371.12-.12v5.49l5.083 1.423 4.455 4.694-.175-1.801c-.088-.471-.193-.961-.307-1.477V15.01c.068-.562.13-1.137.186-1.721L84 11.307v-1.066l-.426-2.052-.34-1.626V4.426M82 9.05v6.12L79.83 13H77v-2h2.83l2.06-2.06.11.11M91 12c0 2.97-1.943 5.489-4.609 6.338l.13 2.015C90.237 19.421 93 16.034 93 12c0-4.098-2.799-7.54-6.574-8.504-.106-.132-.255-.227-.426-.266v2.06c1.568.467 2.891 1.504 3.704 2.848C90.517 9.212 91 10.55 91 12m-5.17-4.368c1.327.704 2.234 2.121 2.207 3.767l-.08.08c.027 1.646-.88 3.063-2.207 3.758l.08-3.602V7.632m.955 2.396c0 .007-.001.014-.002.021l-.211-.211v-.153c.126.063.213.193.213.343M106.423 4.876l-1.361 2.062-2.011 2.009-4.063-.763.247-.247v4.949l6.23 2.929 3.877 4.371-.359-1.826c-.182-.343-.398-.723-.633-1.16v-1.827c.14-.529.268-1.086.382-1.661L108 11.514v-.312l-.876-2.342-.701-1.467V4.876M106 9.282v5.888L103.83 13H101v-2h2.83l1.944-1.944.226.226M115 12c0 2.758-1.767 5.107-4.196 5.945l.268 1.967C114.478 18.956 117 15.774 117 12c0-3.905-2.597-7.202-6.124-8.223-.218-.271-.525-.467-.876-.547v2.06c1.698.505 3.099 1.705 3.832 3.228.733.968 1.168 2.175 1.168 3.482m-5.35-4.725c1.166.665 1.952 1.973 1.897 3.488l-.165.165c.055 1.515-.731 2.823-1.897 3.48l.165-3.155V7.275m1.303 2.947c0 .015-.001.029-.003.043l-.434-.435v-.313c.259.129.437.395.437.705M129.236 5.536l-.504 1.732-1.643 1.64-4.11-1.339.433-.433v4.157l7.909 5.135 3.032 3.898-.63-1.862c-.319-.155-.697-.376-1.109-.694v-1.865c.246-.481.47-1.011.67-1.572L132 11.817v.792l-1.536-2.767-1.228-1.232V5.536M130 9.622v5.548L127.83 13H125v-2h2.83l1.774-1.774.396.396M139 12c0 2.448-1.508 4.548-3.59 5.368l.47 1.897c2.95-.99 5.12-3.873 5.12-7.265 0-3.623-2.301-6.707-5.463-7.811-.384-.474-.921-.819-1.537-.959v2.06c1.889.562 3.403 1.998 4.019 3.785.616.814.981 1.827.981 2.925m-5.614-5.249c.929.609 1.539 1.758 1.443 3.081l-.289.288c.097 1.323-.514 2.472-1.443 3.074l.289-2.5V6.751m1.815 3.756c0 .024-.003.049-.006.074l-.762-.762v-.55c.455.227.768.694.768 1.238M151.885 6.286l.472 1.357-1.224 1.22-4.165-1.994.645-.645v3.257l9.821 7.645 2.069 3.359-.938-1.903c-.475.058-1.038.02-1.65-.164v-1.907c.365-.427.699-.927.996-1.473L156 12.162v2.049l-2.286-3.251-1.829-.965V6.286M154 10.01v5.16L151.83 13H149v-2h2.83l1.58-1.58.59.59m9 1.99c0 2.095-1.214 3.911-2.901 4.712l.699 1.817C163.231 17.501 165 14.959 165 12c0-3.301-1.965-6.143-4.712-7.343-.571-.706-1.371-1.219-2.288-1.427v2.06c2.106.627 3.749 2.332 4.231 4.419.483.637.769 1.431.769 2.291m-5.915-5.845c.66.545 1.071 1.513.928 2.617l-.43.43c.143 1.104-.267 2.072-.927 2.611l.429-1.754V6.155m2.397 4.675c0 .037-.004.074-.009.11l-1.134-1.134v-.818c.677.338 1.143 1.033 1.143 1.842M174.686 6.952l1.338 1.024-.853.847-4.212-2.574.832-.833v2.458l11.516 9.871 1.215 2.881-1.21-1.939c-.614.248-1.34.371-2.131.305v-1.944c.472-.379.903-.852 1.287-1.384L180 12.468v3.163l-2.952-3.68-2.362-.729v-4.27M178 10.353v4.817L175.83 13H173v-2h2.83l1.408-1.408.762.761M187 12c0 1.783-.953 3.347-2.29 4.13l.903 1.747C187.586 16.814 189 14.574 189 12c0-3.017-1.666-5.643-4.046-6.927-.737-.912-1.77-1.574-2.954-1.843v2.06c2.298.684 4.056 2.629 4.42 4.981.364.481.58 1.08.58 1.729m-6.181-6.374c.421.488.654 1.296.469 2.206l-.555.555c.185.91-.048 1.717-.469 2.201l.555-1.093V5.626m2.913 5.491c0 .048-.006.095-.012.142l-1.464-1.464V8.738c.874.437 1.476 1.334 1.476 2.379M197.743 7.476l2.019.762-.56.553-4.251-3.031.981-.98v1.829l12.85 11.624.543 2.504-1.425-1.967c-.723.396-1.578.647-2.51.675v-1.974c.557-.341 1.064-.792 1.516-1.314L204 12.709v4.04l-3.476-4.018-2.781-.542V7.476M202 10.624v4.546L199.83 13H197v-2h2.83l1.273-1.273.897.897M211 12c0 1.536-.747 2.902-1.809 3.672l1.064 1.691C211.866 16.273 213 14.271 213 12c0-2.792-1.431-5.249-3.521-6.6-.868-1.073-2.085-1.854-3.479-2.17v2.06c2.45.729 4.298 2.862 4.568 5.424.271.357.432.803.432 1.286m-6.39-6.79c.233.443.326 1.124.108 1.882l-.654.653c.218.757.125 1.439-.108 1.879l.654-.573V5.21m3.319 6.133c0 .056-.007.111-.014.167l-1.725-1.724V8.541c1.029.515 1.739 1.572 1.739 2.802M221.02 7.878l2.541.561-.336.328-4.279-3.381 1.093-1.094v1.347l13.873 12.967.029 2.216-1.59-1.989c-.807.511-1.761.859-2.8.958v-1.996c.621-.312 1.187-.747 1.691-1.26L228 12.894v4.712l-3.878-4.277-3.102-.399V7.878m4.98 2.953v4.339L223.83 13H221v-2h2.83L225 9.83l1 1.001M235 12c0 1.347-.59 2.562-1.44 3.321l1.186 1.649C236.081 15.858 237 14.039 237 12c0-2.62-1.251-4.948-3.119-6.349-.969-1.198-2.326-2.068-3.881-2.421v2.06c2.566.763 4.483 3.041 4.682 5.763.2.263.318.591.318.947m-6.551-7.109c.089.409.075.993-.168 1.634l-.729.729c.243.64.257 1.224.168 1.631l.729-.175V4.891m3.63 6.625c0 .062-.008.124-.015.186l-1.924-1.923V8.391c1.148.574 1.939 1.753 1.939 3.125M244.466 8.186l2.941.407-.164.156-4.302-3.65 1.181-1.18v.977l14.656 13.997-.366 1.994-1.716-2.005c-.87.598-1.9 1.021-3.022 1.175v-2.014c.67-.289 1.281-.712 1.825-1.219L252 13.036v5.227l-4.186-4.475-3.348-.29V8.186M250 10.99v4.18L247.83 13H245v-2h2.83l1.09-1.09 1.08 1.08m9 1.01c0 1.203-.469 2.301-1.158 3.052l1.281 1.616C260.245 15.54 261 13.861 261 12c0-2.489-1.113-4.717-2.811-6.157-1.046-1.292-2.511-2.232-4.189-2.613v2.06c2.655.79 4.625 3.178 4.769 6.022.145.192.231.43.231.688m-6.674-7.353c-.022.382-.118.892-.38 1.443l-.787.787c.262.55.359 1.06.38 1.441l.787.132V4.647m3.869 7.002c0 .067-.009.134-.017.201l-2.076-2.076V8.275c1.239.62 2.093 1.892 2.093 3.374M268.04 8.422l3.249.289-.033.024-4.318-3.857 1.247-1.247v.693l15.259 14.789-.669 1.825-1.813-2.019c-.92.666-2.008 1.146-3.193 1.342v-2.027c.708-.272 1.353-.685 1.928-1.187L276 13.144v5.624l-4.422-4.628-3.538-.205V8.422m5.96 2.69v4.058L271.83 13H269v-2h2.83l1.029-1.029L274 11.112m9 .888c0 1.092-.376 2.1-.94 2.845l1.353 1.591C284.372 15.296 285 13.724 285 12c0-2.387-1.007-4.539-2.574-6.009-1.105-1.366-2.653-2.359-4.426-2.761v2.06c2.723.81 4.734 3.283 4.836 6.222.103.136.164.305.164.488m-6.769-7.541c-.106.362-.265.815-.542 1.297l-.832.831c.277.482.437.934.543 1.296l.831.366v-3.79m4.052 7.292c0 .071-.008.142-.017.212l-2.194-2.193V8.187c1.309.654 2.211 1.999 2.211 3.564M291.713 8.604l3.485.198.069-.078-4.331-4.015 1.298-1.298v.475l15.721 15.396-.902 1.694-1.887-2.028c-.958.717-2.091 1.241-3.324 1.47V18.38c.736-.258 1.408-.664 2.007-1.162L300 13.228v5.927l-4.604-4.745-3.683-.141V8.604M298 11.206v3.964L295.83 13H293v-2h2.83l.982-.982L298 11.206m9 .794c0 1.006-.305 1.946-.774 2.686l1.409 1.572C308.468 15.109 309 13.619 309 12c0-2.31-.925-4.402-2.393-5.896-1.149-1.421-2.761-2.455-4.607-2.874v2.06c2.776.826 4.817 3.364 4.888 6.376.07.093.112.208.112.334m-6.842-7.685c-.171.347-.379.756-.667 1.184l-.866.866c.289.429.497.838.668 1.184l.865.547V4.315m4.193 7.514c0 .074-.009.148-.018.221l-2.283-2.283V8.119c1.362.681 2.301 2.08 2.301 3.71M315.465 8.742l3.664.129.146-.156-4.341-4.134 1.337-1.337v.31l16.072 15.856-1.079 1.595-1.944-2.036c-.986.757-2.153 1.314-3.423 1.568v-2.045c.758-.249 1.451-.65 2.067-1.145L324 13.291v6.158l-4.742-4.834-3.793-.091V8.742M322 11.277V15.17L319.83 13H317v-2h2.83l.947-.947L322 11.277m9 .723c0 .941-.251 1.829-.647 2.566l1.451 1.557C332.542 14.967 333 13.539 333 12c0-2.251-.863-4.299-2.255-5.81-1.184-1.464-2.844-2.529-4.745-2.96v2.06c2.815.838 4.881 3.425 4.927 6.492.046.061.073.136.073.218m-6.897-7.795c-.22.335-.465.711-.762 1.1l-.891.891c.297.389.541.764.762 1.099l.891.684V4.205m4.3 7.684c0 .076-.009.151-.019.227l-2.352-2.352V8.067c1.404.702 2.371 2.143 2.371 3.822M339.281 8.844l3.797.078.203-.213-4.349-4.224 1.366-1.366v.188l16.333 16.198-1.21 1.522-1.986-2.042c-1.008.786-2.199 1.368-3.497 1.64v-2.051c.775-.241 1.482-.638 2.112-1.131L348 13.338v6.329l-4.844-4.899-3.875-.056V8.844M346 11.329v3.841L343.83 13H341v-2h2.83l.92-.92 1.25 1.249m9 .671c0 .893-.211 1.742-.553 2.476l1.482 1.547C356.597 14.861 357 13.48 357 12c0-2.207-.817-4.222-2.152-5.746-1.21-1.496-2.906-2.583-4.848-3.024v2.06c2.845.847 4.928 3.471 4.956 6.578.028.037.044.083.044.132m-6.938-7.876c-.257.327-.529.678-.832 1.036l-.911.911c.304.359.575.71.833 1.036l.91.785V4.124m4.379 7.809c0 .077-.009.155-.019.232l-2.402-2.402V8.029c1.433.716 2.421 2.189 2.421 3.904M363.15 8.917l3.892.041.243-.253-4.354-4.287 1.387-1.387v.1l16.518 16.442-1.303 1.469-2.016-2.045c-1.023.806-2.233 1.406-3.55 1.691v-2.055c.786-.236 1.504-.63 2.143-1.121l-4.11-4.14v6.45l-4.917-4.946-3.933-.029v-5.93m6.85 2.45v3.803L367.83 13H365v-2h2.83l.901-.901L370 11.367m9 .633c0 .859-.183 1.681-.486 2.413l1.504 1.539c.618-1.166.982-2.514.982-3.952 0-2.176-.785-4.167-2.08-5.701-1.227-1.518-2.948-2.622-4.92-3.069v2.06c2.866.853 4.962 3.503 4.976 6.64.015.019.024.044.024.07m-6.967-7.934c-.283.32-.574.654-.882.991l-.925.925c.308.337.599.671.883.991l.924.857V4.066m4.436 7.898c0 .079-.01.157-.02.236l-2.439-2.439v-1.76c1.456.728 2.459 2.223 2.459 3.963M387.063 8.965l3.955.017.27-.28-4.358-4.329 1.401-1.4v.042l16.64 16.602-1.365 1.436-2.035-2.049c-1.033.82-2.255 1.432-3.585 1.726v-2.058c.794-.233 1.519-.624 2.165-1.115L396 13.394v6.531l-4.965-4.977-3.972-.013v-5.97M394 11.392V15.17L391.83 13H389v-2h2.83l.889-.889L394 11.392m9 .608c0 .837-.164 1.64-.442 2.371l1.519 1.533c.584-1.168.923-2.494.923-3.904 0-2.155-.763-4.131-2.031-5.671-1.24-1.533-2.978-2.647-4.969-3.099v2.06c2.88.857 4.984 3.524 4.99 6.68.006.009.01.019.01.03m-6.986-7.972c-.301.316-.605.638-.916.962l-.933.933c.311.324.615.645.916.962l.933.905V4.028m4.473 7.957c0 .079-.01.159-.02.238l-2.463-2.462V7.983c1.47.735 2.483 2.244 2.483 4.002M411.015 8.992l3.989.004.286-.295-4.36-4.353 1.408-1.408v.01l16.708 16.692-1.399 1.416-2.046-2.049c-1.039.827-2.267 1.445-3.604 1.744v-2.06c.798-.23 1.527-.621 2.176-1.111L420 13.406v6.576l-4.992-4.995-3.993-.002V8.992M418 11.406v3.764L415.83 13H413v-2h2.83l.882-.882L418 11.406m9 .594c0 .824-.153 1.617-.418 2.347l1.528 1.531c.566-1.169.89-2.483.89-3.878 0-2.144-.751-4.111-2.005-5.654-1.246-1.541-2.993-2.662-4.995-3.116v2.06c2.888.859 4.996 3.536 4.998 6.703.001.002.002.004.002.007m-6.997-7.993c-.31.314-.621.629-.934.945l-.938.938c.313.316.624.631.934.945l.938.932v-3.76m4.494 7.989c0 .08-.01.16-.02.24l-2.476-2.476V7.973c1.478.739 2.496 2.256 2.496 4.023M435 9h4l.29-.3-4.36-4.36 1.41-1.41 16.73 16.72-1.41 1.41-2.05-2.05c-1.04.83-2.27 1.45-3.61 1.75V18.7c.8-.23 1.53-.62 2.18-1.11L444 13.41V20l-5-5h-4V9m7 2.41v3.76L439.83 13H437v-2h2.83l.88-.88 1.29 1.29m9 .59c0 .82-.15 1.61-.41 2.34l1.53 1.53c.56-1.17.88-2.48.88-3.87 0-2.14-.747-4.105-1.996-5.649-1.249-1.543-2.999-2.666-5.004-3.121v2.06c2.89.86 5 3.54 5 6.71m-7-8l-.94.94-.94.94.94.94.94.94V4m4.5 8c0 .08-.01.16-.02.24L446 9.76V7.97c1.48.74 2.5 2.26 2.5 4.03" fill="#000000"/></svg>