<svg xmlns="http://www.w3.org/2000/svg" viewBox="0 0 240 24" width="240" height="24"><path d="M14 5h4v14h-4V5M6 5v14h4V5H6M37.879 5.11l.159.101 3.827.034-.053 13.611-3.933.034V5.11M30.06 5v14l4.211-.211L33.94 5h-3.88M61.532 5.426l.617.393 3.326.131-.205 12.493-3.738.131V5.426M54.234 5v14l4.819-.819L57.766 5h-3.532M85 5.91l1.318.84 2.56.28-.439 10.78-3.439.28V5.91M78.5 5v14l5.75-1.75L81.5 5h-3M108.347 6.504l2.178 1.388 1.621.463-.726 8.678-3.073.463V6.504M102.826 5v14l6.893-2.892L105.174 5h-2.348M131.653 7.136l3.092 1.972.622.657-1.031 6.442-2.683.657V7.136M127.174 5v14l8.107-4.108L128.826 5h-1.652M155 7.73l3.953 2.52-.318.84-1.317 4.34-2.318.84V7.73M151.5 5v14l9.25-5.25L152.5 5h-1M178.468 8.214l4.653 2.967-1.083.989-1.551 2.627-2.019.989V8.214M175.766 5v14l10.181-6.181L176.234 5h-.468M202.121 8.53l5.111 3.259-1.583 1.086-1.704 1.509-1.824 1.086V8.53M199.94 5v14l10.789-6.789L200.06 5h-.12M226 8.64l5.27 3.36-1.757 1.12-1.756 1.12L226 15.36V8.64M224 5v14l11-7-11-7" fill="#000000"/></svg>