<svg xmlns="http://www.w3.org/2000/svg" viewBox="0 0 888 24" width="888" height="24"><path d="M2 3.5h20m-20 17h20M2 12h20M2 12h20M2 12h20M2 12h20M26 3.565h20m-20 16.87h20M26 12h20M26 12h20m-20 0h20m-20 0h20M50 3.756h20M50 20.244h20M50 12h20M50 12h20m-20 0h20m-20 0h20M74 4.069h20M74 19.931h20M74 12h20M74 12h20m-20 0h20m-20 0h20M98 4.494h20M98 19.506h20M98 12h20M98 12h20m-20 0h20m-20 0h20M122 5.018h20m-20 13.964h20M122 12h20M122 12h20m-20 0h20m-20 0h20M146 5.625h20m-20 12.75h20M146 12h20M146 12h20m-20 0h20m-20 0h20M170 6.296h20m-20 11.408h20M170 12h20M170 12h20m-20 0h20m-20 0h20M194 7.012h20m-20 9.976h20M194 12h20M194 12h20m-20 0h20m-20 0h20M218 7.75h20m-20 8.5h20M218 12h20M218 12h20m-20 0h20m-20 0h20M242 8.488h20m-20 7.024h20M242 12h20M242 12h20m-20 0h20m-20 0h20M266 9.204h20m-20 5.592h20M266 12h20M266 12h20m-20 0h20m-20 0h20M290 9.875h20m-20 4.25h20M290 12h20M290 12h20m-20 0h20m-20 0h20M314 10.482h20m-20 3.036h20M314 12h20M314 12h20m-20 0h20m-20 0h20M338 11.006h20m-20 1.988h20M338 12h20M338 12h20m-20 0h20m-20 0h20M362 11.431h20m-20 1.138h20M362 12h20M362 12h20m-20 0h20m-20 0h20M386 11.744h20m-20 .512h20M386 12h20M386 12h20m-20 0h20m-20 0h20M410 11.935h20m-20 .13h20M410 12h20M410 12h20m-20 0h20m-20 0h20" fill="#000000" stroke="#000000" stroke-width="4" stroke-linecap="round"/><path d="M434 12h20m-20 0h20m-20 0h20" fill="#000000"/><path d="M434 12h20m-20 0h20m-20 0h20" fill="#000000" stroke="#000000" stroke-width="4" stroke-linecap="round"/><g><path d="M458 12h20m-20 0h20m-20 0h20" fill="#000000"/><path d="M458 11.924l20 .152m-20-.152l20 .152m-20 0l20-.152" fill="#000000" stroke="#000000" stroke-width="4" stroke-linecap="round"/></g><g><path d="M482 12h20m-20 0h20m-20 0h20" fill="#000000"/><path d="M482 11.698l20 .604m-20-.604l20 .604m-20 0l20-.604" fill="#000000" stroke="#000000" stroke-width="4" stroke-linecap="round"/></g><g><path d="M506 12h20m-20 0h20m-20 0h20" fill="#000000"/><path d="M506 11.33l20 1.34m-20-1.34l20 1.34m-20 0l20-1.34" fill="#000000" stroke="#000000" stroke-width="4" stroke-linecap="round"/></g><g><path d="M530 12h20m-20 0h20m-20 0h20" fill="#000000"/><path d="M530 10.83l20 2.34m-20-2.34l20 2.34m-20 0l20-2.34" fill="#000000" stroke="#000000" stroke-width="4" stroke-linecap="round"/></g><g><path d="M554 12h20m-20 0h20m-20 0h20" fill="#000000"/><path d="M554 10.214l20 3.572m-20-3.572l20 3.572m-20 0l20-3.572" fill="#000000" stroke="#000000" stroke-width="4" stroke-linecap="round"/></g><g><path d="M578 12h20m-20 0h20m-20 0h20" fill="#000000"/><path d="M578 9.5l20 5m-20-5l20 5m-20 0l20-5" fill="#000000" stroke="#000000" stroke-width="4" stroke-linecap="round"/></g><g><path d="M602 12h20m-20 0h20m-20 0h20" fill="#000000"/><path d="M602 8.71l20 6.58m-20-6.58l20 6.58m-20 0l20-6.58" fill="#000000" stroke="#000000" stroke-width="4" stroke-linecap="round"/></g><g><path d="M626 12h20m-20 0h20m-20 0h20" fill="#000000"/><path d="M626 7.868l20 8.264m-20-8.264l20 8.264m-20 0l20-8.264" fill="#000000" stroke="#000000" stroke-width="4" stroke-linecap="round"/></g><g><path d="M650 12h20m-20 0h20m-20 0h20" fill="#000000"/><path d="M650 7l20 10M650 7l20 10m-20 0l20-10" fill="#000000" stroke="#000000" stroke-width="4" stroke-linecap="round"/></g><g><path d="M674 12h20m-20 0h20m-20 0h20" fill="#000000"/><path d="M674 6.132l20 11.736M674 6.132l20 11.736m-20 0l20-11.736" fill="#000000" stroke="#000000" stroke-width="4" stroke-linecap="round"/></g><g><path d="M698 12h20m-20 0h20m-20 0h20" fill="#000000"/><path d="M698 5.29l20 13.42M698 5.29l20 13.42m-20 0l20-13.42" fill="#000000" stroke="#000000" stroke-width="4" stroke-linecap="round"/></g><g><path d="M722 12h20m-20 0h20m-20 0h20" fill="#000000"/><path d="M722 4.5l20 15m-20-15l20 15m-20 0l20-15" fill="#000000" stroke="#000000" stroke-width="4" stroke-linecap="round"/></g><g><path d="M746 12h20m-20 0h20m-20 0h20" fill="#000000"/><path d="M746 3.786l20 16.428M746 3.786l20 16.428m-20 0l20-16.428" fill="#000000" stroke="#000000" stroke-width="4" stroke-linecap="round"/></g><g><path d="M770 12h20m-20 0h20m-20 0h20" fill="#000000"/><path d="M770 3.17l20 17.66M770 3.17l20 17.66m-20 0l20-17.66" fill="#000000" stroke="#000000" stroke-width="4" stroke-linecap="round"/></g><g><path d="M794 12h20m-20 0h20m-20 0h20" fill="#000000"/><path d="M794 2.67l20 18.66M794 2.67l20 18.66m-20 0l20-18.66" fill="#000000" stroke="#000000" stroke-width="4" stroke-linecap="round"/></g><g><path d="M818 12h20m-20 0h20m-20 0h20" fill="#000000"/><path d="M818 2.302l20 19.396M818 2.302l20 19.396m-20 0l20-19.396" fill="#000000" stroke="#000000" stroke-width="4" stroke-linecap="round"/></g><g><path d="M842 12h20m-20 0h20m-20 0h20" fill="#000000"/><path d="M842 2.076l20 19.848M842 2.076l20 19.848m-20 0l20-19.848" fill="#000000" stroke="#000000" stroke-width="4" stroke-linecap="round"/></g><g><path d="M866 12h20m-20 0h20m-20 0h20" fill="#000000"/><path d="M866 2l20 20M866 2l20 20m-20 0l20-20" fill="#000000" stroke="#000000" stroke-width="4" stroke-linecap="round"/></g></svg>