<svg xmlns="http://www.w3.org/2000/svg" viewBox="0 0 240 24" width="240" height="24"><path d="M12 9c1.65 0 3 1.35 3 3 0 .825-.338 1.575-.881 2.119-.544.543-1.294.881-2.119.881-1.65 0-3-1.35-3-3 0-.55.15-1.067.411-1.511.261-.445.633-.817 1.078-1.078C10.933 9.15 11.45 9 12 9m0-2c-.69 0-1.348.14-1.946.393-.598.253-1.136.619-1.589 1.072-.453.453-.819.991-1.072 1.589C7.14 10.652 7 11.31 7 12c0 2.76 2.24 5 5 5 .92 0 1.782-.249 2.523-.683.741-.434 1.36-1.053 1.794-1.794.434-.741.683-1.603.683-2.523 0-2.76-2.24-5-5-5M2 13c-.55 0-1-.45-1-1s.45-1 1-1h2c.55 0 1 .45 1 1s-.45 1-1 1H2m18 0c-.55 0-1-.45-1-1s.45-1 1-1h2c.55 0 1 .45 1 1s-.45 1-1 1h-2M11 2c0-.55.45-1 1-1s1 .45 1 1v2c0 .55-.45 1-1 1s-1-.45-1-1V2m0 18c0-.55.45-1 1-1s1 .45 1 1v2c0 .55-.45 1-1 1s-1-.45-1-1v-2M7.05 5.64c.39.38.38 1.02 0 1.41-.38.39-1.02.39-1.41 0L4.58 5.99c-.39-.38-.39-1.02 0-1.41.38-.39 1.02-.39 1.41 0l1.06 1.06m9.9 12.72c-.39-.38-.39-1.02 0-1.41.38-.39 1.02-.39 1.41 0l1.06 1.06c.39.38.39 1.02 0 1.41-.38.39-1.02.39-1.41 0l-1.06-1.06m1.41-11.31c-.38.39-1.02.38-1.41 0-.39-.38-.39-1.02 0-1.41l1.06-1.06c.38-.39 1.02-.39 1.41 0 .39.38.39 1.02 0 1.41l-1.06 1.06m-12.72 9.9c.38-.39 1.02-.39 1.41 0 .39.38.39 1.02 0 1.41l-1.06 1.06c-.38.39-1.02.38-1.41 0-.39-.38-.39-1.02 0-1.41l1.06-1.06M35.678 8.833c1.466.454 3.035 2.023 3.489 3.489.075.734-.15 1.39-.563 1.854-.598.767-1.545 1.268-2.604 1.268-1.896 0-3.444-1.548-3.444-3.444 0-.814.334-1.554.851-2.064.232-.395.563-.726.958-.958.375-.161.824-.22 1.313-.145m.222-1.777c-.613-.202-1.099-.256-1.478-.14-.581.218-1.111.54-1.564.942-.402.402-.728.881-.953 1.413-.777.531-1.349 1.563-1.349 2.729 0 3.006 2.438 5.444 5.444 5.444 1.37 0 2.584-.669 3.243-1.607.658-.437 1.204-1.038 1.583-1.745.277-.507.321-1.174.118-1.992-.165-2.453-2.306-4.512-4.868-4.62-.109-.109-.176-.259-.176-.424m-9.789 5.833c-.489 0-.889-.4-.889-.889s.4-.889.889-.889h1.778c.489 0 .889.4.889.889s-.4.889-.889.889h-1.778m18 0c-.489 0-.889-.4-.889-.889s.4-.889.889-.889h1.778c.489 0 .889.4.889.889s-.4.889-.889.889h-1.778m-9-10.778c0-.489.4-.889.889-.889s.889.4.889.889v1.778c0 .489-.4.889-.889.889s-.889-.4-.889-.889V2.111m0 18c0-.489.4-.889.889-.889s.889.4.889.889v1.778c0 .489-.4.889-.889.889s-.889-.4-.889-.889v-1.778M30.913 5.659c.346.338.338.907 0 1.254-.338.346-.907.346-1.254 0l-.942-.942c-.346-.338-.346-.907 0-1.254.338-.346.907-.346 1.254 0l.942.942m10.174 12.682c-.346-.338-.346-.907 0-1.254.338-.346.907-.346 1.254 0l.942.942c.346.338.346.907 0 1.254-.338.346-.907.346-1.254 0l-.942-.942m1.254-11.428c-.338.346-.907.338-1.254 0-.346-.338-.346-.907 0-1.254l.942-.942c.338-.346.907-.346 1.254 0 .346.338.346.907 0 1.254l-.942.942M29.659 17.087c.338-.346.907-.346 1.254 0 .346.338.346.907 0 1.254l-.942.942c-.338.346-.907.338-1.254 0-.346-.338-.346-.907 0-1.254l.942-.942M59.356 8.667c1.283.906 3.071 2.694 3.977 3.977.151.642.038 1.205-.243 1.588-.654.992-1.797 1.657-3.09 1.657-2.141 0-3.889-1.748-3.889-3.889 0-1.079.519-2.041 1.291-2.618.203-.345.493-.635.838-.838.306-.061.688-.028 1.116.123m.444-1.556c-.537-.402-.85-.651-1.011-.672-.563.184-1.084.46-1.538.812-.352.352-.637.771-.834 1.236-1.301.465-2.306 1.872-2.306 3.513 0 3.251 2.638 5.889 5.889 5.889 1.82 0 3.386-1.089 3.962-2.531.576-.44 1.049-1.024 1.373-1.698.12-.272-.042-.744-.446-1.46-.331-2.147-2.373-4.023-4.737-4.241-.218-.217-.352-.517-.352-.848m-9.578 5.667c-.428 0-.778-.35-.778-.778 0-.428.35-.778.778-.778h1.556c.428 0 .778.35.778.778 0 .428-.35.778-.778.778h-1.556m18 0c-.428 0-.778-.35-.778-.778 0-.428.35-.778.778-.778h1.556c.428 0 .778.35.778.778 0 .428-.35.778-.778.778h-1.556m-9-10.556c0-.428.35-.778.778-.778.428 0 .778.35.778.778v1.556c0 .428-.35.778-.778.778-.428 0-.778-.35-.778-.778V2.222m0 18c0-.428.35-.778.778-.778.428 0 .778.35.778.778v1.556c0 .428-.35.778-.778.778-.428 0-.778-.35-.778-.778v-1.556M54.776 5.679c.303.295.295.793 0 1.097-.296.303-.794.303-1.097 0l-.825-.825c-.303-.295-.303-.793 0-1.097.296-.303.794-.303 1.097 0l.825.825m10.448 12.642c-.303-.295-.303-.793 0-1.097.296-.303.794-.303 1.097 0l.825.825c.303.295.303.793 0 1.097-.296.303-.794.303-1.097 0l-.825-.825m1.097-11.545c-.295.303-.793.295-1.097 0-.303-.296-.303-.794 0-1.097l.825-.825c.295-.303.793-.303 1.097 0 .303.296.303.794 0 1.097l-.825.825M53.679 17.224c.295-.303.793-.303 1.097 0 .303.296.303.794 0 1.097l-.825.825c-.295.303-.793.295-1.097 0-.303-.296-.303-.794 0-1.097l.825-.825M83.033 8.5c1.1 1.36 3.107 3.367 4.467 4.467.227.55.225 1.02.076 1.322-.709 1.216-2.049 2.044-3.576 2.044-2.387 0-4.333-1.946-4.333-4.333 0-1.343.703-2.528 1.73-3.171.174-.296.423-.544.719-.718.236.039.551.162.917.389m.667-1.333c-.46-.604-.602-1.047-.544-1.205-.545.149-1.058.38-1.513.681-.301.302-.545.661-.714 1.06-1.826.399-3.262 2.18-3.262 4.297 0 3.497 2.836 6.333 6.333 6.333 2.27 0 4.188-1.509 4.682-3.455.494-.443.893-1.009 1.163-1.649-.038-.038-.405-.316-1.012-.929-.496-1.84-2.44-3.535-4.606-3.861-.325-.326-.527-.776-.527-1.272m-9.367 5.5c-.366 0-.666-.3-.666-.667 0-.367.3-.667.666-.667h1.334c.366 0 .666.3.666.667 0 .367-.3.667-.666.667h-1.334m18 0c-.366 0-.666-.3-.666-.667 0-.367.3-.667.666-.667h1.334c.366 0 .666.3.666.667 0 .367-.3.667-.666.667h-1.334m-9-10.334c0-.366.3-.666.667-.666.367 0 .667.3.667.666v1.334c0 .366-.3.666-.667.666-.367 0-.667-.3-.667-.666V2.333m0 18c0-.366.3-.666.667-.666.367 0 .667.3.667.666v1.334c0 .366-.3.666-.667.666-.367 0-.667-.3-.667-.666v-1.334M78.638 5.698c.26.254.254.68 0 .94-.253.26-.68.26-.94 0l-.706-.706c-.26-.254-.26-.68 0-.94.253-.26.68-.26.94 0l.706.706m10.724 12.604c-.26-.254-.26-.68 0-.94.253-.26.68-.26.94 0l.706.706c.26.254.26.68 0 .94-.253.26-.68.26-.94 0l-.706-.706m.94-11.664c-.254.26-.68.254-.94 0-.26-.253-.26-.68 0-.94l.706-.706c.254-.26.68-.26.94 0 .26.253.26.68 0 .94l-.706.706M77.698 17.362c.254-.26.68-.26.94 0 .26.253.26.68 0 .94l-.706.706c-.254.26-.68.254-.94 0-.26-.253-.26-.68 0-.94l.706-.706M106.711 8.333c.917 1.814 3.142 4.039 4.956 4.956.302.458.412.835.395 1.057-.765 1.44-2.301 2.432-4.062 2.432-2.632 0-4.778-2.146-4.778-4.778 0-1.608.888-3.015 2.171-3.724.145-.247.352-.454.599-.599.167.14.414.354.719.656m.889-1.111c-.383-.804-.353-1.442-.076-1.737-.528.114-1.032.3-1.488.551-.251.251-.455.551-.595.883-2.35.332-4.219 2.489-4.219 5.081 0 3.742 3.036 6.778 6.778 6.778 2.72 0 4.99-1.93 5.402-4.38.411-.445.737-.994.952-1.601-.194.198-.767.114-1.576-.397-.662-1.533-2.507-3.047-4.475-3.481-.434-.435-.703-1.035-.703-1.697m-9.156 5.334c-.305 0-.555-.25-.555-.556 0-.306.25-.556.555-.556h1.112c.305 0 .555.25.555.556 0 .306-.25.556-.555.556h-1.112m18 0c-.305 0-.555-.25-.555-.556 0-.306.25-.556.555-.556h1.112c.305 0 .555.25.555.556 0 .306-.25.556-.555.556h-1.112m-9-10.112c0-.305.25-.555.556-.555.306 0 .556.25.556.555v1.112c0 .305-.25.555-.556.555-.306 0-.556-.25-.556-.555V2.444m0 18c0-.305.25-.555.556-.555.306 0 .556.25.556.555v1.112c0 .305-.25.555-.556.555-.306 0-.556-.25-.556-.555v-1.112m-4.943-14.726c.217.211.211.566 0 .783-.211.217-.567.217-.783 0l-.589-.589c-.217-.211-.217-.566 0-.783.211-.217.567-.217.783 0l.589.589m10.998 12.564c-.217-.211-.217-.566 0-.783.211-.217.567-.217.783 0l.589.589c.217.211.217.566 0 .783-.211.217-.567.217-.783 0l-.589-.589m.783-11.781c-.211.217-.566.211-.783 0-.217-.211-.217-.567 0-.783l.589-.589c.211-.217.566-.217.783 0 .217.211.217.567 0 .783l-.589.589m-12.564 10.998c.211-.217.566-.217.783 0 .217.211.217.567 0 .783l-.589.589c-.211.217-.566.211-.783 0-.217-.211-.217-.567 0-.783l.589-.589M130.389 8.167c.733 2.266 3.178 4.711 5.444 5.444.378.367.6.65.714.792-.819 1.664-2.553 2.819-4.547 2.819-2.878 0-5.222-2.344-5.222-5.222 0-1.872 1.072-3.502 2.61-4.277.116-.198.282-.363.479-.479.098.239.277.545.522.923m1.111-.889c-.307-1.006-.104-1.838.391-2.27-.51.079-1.005.22-1.462.421-.201.201-.364.44-.476.706-2.874.266-5.175 2.797-5.175 5.865 0 3.988 3.234 7.222 7.222 7.222 3.17 0 5.792-2.349 6.121-5.303.33-.449.583-.98.742-1.553-.351.432-1.13.543-2.141.134-.828-1.227-2.573-2.558-4.343-3.101-.543-.543-.879-1.293-.879-2.121m-8.944 5.166c-.245 0-.445-.2-.445-.444s.2-.444.445-.444h.888c.245 0 .445.2.445.444s-.2.444-.445.444h-.888m18 0c-.245 0-.445-.2-.445-.444s.2-.444.445-.444h.888c.245 0 .445.2.445.444s-.2.444-.445.444h-.888m-9-9.888c0-.245.2-.445.444-.445s.444.2.444.445v.888c0 .245-.2.445-.444.445s-.444-.2-.444-.445v-.888m0 18c0-.245.2-.445.444-.445s.444.2.444.445v.888c0 .245-.2.445-.444.445s-.444-.2-.444-.445v-.888m-5.192-14.819c.173.169.169.454 0 .627s-.453.173-.627 0l-.471-.471c-.173-.169-.173-.454 0-.627.169-.173.453-.173.627 0l.471.471m11.272 12.526c-.173-.169-.173-.454 0-.627.169-.173.453-.173.627 0l.471.471c.173.169.173.454 0 .627-.169.173-.453.173-.627 0l-.471-.471m.627-11.899c-.169.173-.454.169-.627 0s-.173-.453 0-.627l.471-.471c.169-.173.454-.173.627 0 .173.169.173.453 0 .627l-.471.471m-12.526 11.272c.169-.173.454-.173.627 0 .173.169.173.453 0 .627l-.471.471c-.169.173-.454.169-.627 0s-.173-.453 0-.627l.471-.471M154.067 8c.55 2.72 3.213 5.383 5.933 5.933.453.275.788.465 1.033.527-.875 1.888-2.805 3.207-5.033 3.207-3.123 0-5.667-2.544-5.667-5.667 0-2.137 1.257-3.989 3.051-4.83.087-.149.211-.273.359-.36.028.34.14.737.324 1.19m1.333-.667c-.23-1.206.144-2.233.858-2.802-.493.044-.979.14-1.436.291-.151.151-.273.33-.358.529-3.397.2-6.131 3.106-6.131 6.649 0 4.233 3.434 7.667 7.667 7.667 3.62 0 6.594-2.77 6.841-6.228.247-.451.427-.964.531-1.505-.508.667-1.492.973-2.705.666-.994-.92-2.64-2.07-4.212-2.722-.652-.651-1.055-1.551-1.055-2.545m-8.733 5c-.184 0-.334-.15-.334-.333 0-.183.15-.333.334-.333h.666c.184 0 .334.15.334.333 0 .183-.15.333-.334.333h-.666m18 0c-.184 0-.334-.15-.334-.333 0-.183.15-.333.334-.333h.666c.184 0 .334.15.334.333 0 .183-.15.333-.334.333h-.666m-9-9.666c0-.184.15-.334.333-.334.183 0 .333.15.333.334v.666c0 .184-.15.334-.333.334-.183 0-.333-.15-.333-.334v-.666m0 18c0-.184.15-.334.333-.334.183 0 .333.15.333.334v.666c0 .184-.15.334-.333.334-.183 0-.333-.15-.333-.334v-.666m-5.44-14.91c.13.126.126.34 0 .47-.127.13-.34.13-.47 0l-.354-.354c-.13-.126-.13-.34 0-.47.127-.13.34-.13.47 0l.354.354m11.546 12.486c-.13-.126-.13-.34 0-.47.127-.13.34-.13.47 0l.354.354c.13.126.13.34 0 .47-.127.13-.34.13-.47 0l-.354-.354m.47-12.016c-.126.13-.34.126-.47 0-.13-.127-.13-.34 0-.47l.354-.354c.126-.13.34-.13.47 0 .13.127.13.34 0 .47l-.354.354m-12.486 11.546c.126-.13.34-.13.47 0 .13.127.13.34 0 .47l-.354.354c-.126.13-.34.126-.47 0-.13-.127-.13-.34 0-.47l.354-.354M177.744 7.833c.367 3.174 3.249 6.056 6.423 6.423.529.183.975.28 1.352.26-.93 2.112-3.057 3.595-5.519 3.595-3.369 0-6.111-2.742-6.111-6.111 0-2.401 1.441-4.476 3.49-5.384.058-.098.141-.181.24-.239-.042.44.003.927.125 1.456m1.556-.444c-.153-1.408.393-2.629 1.325-3.335-.475.01-.952.06-1.411.16-.1.101-.181.221-.238.354-3.922.133-7.087 3.413-7.087 7.432 0 4.479 3.632 8.111 8.111 8.111 4.07 0 7.396-3.19 7.561-7.152.164-.454.271-.949.321-1.456-.666.901-1.855 1.401-3.271 1.197-1.159-.613-2.707-1.582-4.08-2.342-.76-.76-1.231-1.81-1.231-2.969m-8.522 4.833c-.122 0-.222-.1-.222-.222s.1-.222.222-.222h.444c.122 0 .222.1.222.222s-.1.222-.222.222h-.444m18 0c-.122 0-.222-.1-.222-.222s.1-.222.222-.222h.444c.122 0 .222.1.222.222s-.1.222-.222.222h-.444m-9-9.444c0-.122.1-.222.222-.222s.222.1.222.222v.444c0 .122-.1.222-.222.222s-.222-.1-.222-.222v-.444m0 18c0-.122.1-.222.222-.222s.222.1.222.222v.444c0 .122-.1.222-.222.222s-.222-.1-.222-.222v-.444m-5.689-15.002c.087.085.085.227 0 .313-.084.087-.226.087-.313 0l-.235-.235c-.087-.085-.087-.227 0-.313.084-.087.226-.087.313 0l.235.235m11.822 12.448c-.087-.085-.087-.227 0-.313.084-.087.226-.087.313 0l.235.235c.087.085.087.227 0 .313-.084.087-.226.087-.313 0l-.235-.235m.313-12.135c-.085.087-.227.085-.313 0-.087-.084-.087-.226 0-.313l.235-.235c.085-.087.227-.087.313 0 .087.084.087.226 0 .313l-.235.235m-12.448 11.822c.085-.087.227-.087.313 0 .087.084.087.226 0 .313l-.235.235c-.085.087-.227.085-.313 0-.087-.084-.087-.226 0-.313l.235-.235M201.422 7.667c.184 3.626 3.285 6.727 6.911 6.911.605.091 1.163.095 1.671-.005-.985 2.336-3.308 3.983-6.004 3.983-3.614 0-6.556-2.942-6.556-6.556 0-2.666 1.626-4.963 3.931-5.937.029-.049.07-.091.119-.12-.11.54-.133 1.119-.072 1.724m1.778-.223c-.077-1.608.641-3.024 1.793-3.867-.458-.025-.927-.02-1.386.03-.05.051-.091.11-.119.177-4.446.066-8.044 3.722-8.044 8.216 0 4.724 3.832 8.556 8.556 8.556 4.52 0 8.198-3.61 8.28-8.076.083-.457.116-.935.111-1.409-.823 1.136-2.218 1.831-3.835 1.729-1.325-.307-2.774-1.093-3.949-1.962-.869-.869-1.407-2.069-1.407-3.394m-8.311 4.667c-.061 0-.111-.05-.111-.111s.05-.111.111-.111h.222c.061 0 .111.05.111.111s-.05.111-.111.111h-.222m18 0c-.061 0-.111-.05-.111-.111s.05-.111.111-.111h.222c.061 0 .111.05.111.111s-.05.111-.111.111h-.222m-9-9.222c0-.061.05-.111.111-.111s.111.05.111.111v.222c0 .061-.05.111-.111.111s-.111-.05-.111-.111v-.222m0 18c0-.061.05-.111.111-.111s.111.05.111.111v.222c0 .061-.05.111-.111.111s-.111-.05-.111-.111v-.222m-5.937-15.093c.044.042.042.113 0 .156-.042.044-.113.044-.156 0l-.118-.118c-.044-.042-.044-.113 0-.156.042-.044.113-.044.156 0l.118.118m12.096 12.408c-.044-.042-.044-.113 0-.156.042-.044.113-.044.156 0l.118.118c.044.042.044.113 0 .156-.042.044-.113.044-.156 0l-.118-.118m.156-12.252c-.042.044-.113.042-.156 0-.044-.042-.044-.113 0-.156l.118-.118c.042-.044.113-.044.156 0 .044.042.044.113 0 .156l-.118.118m-12.408 12.096c.042-.044.113-.044.156 0 .044.042.044.113 0 .156l-.118.118c-.042.044-.113.042-.156 0-.044-.042-.044-.113 0-.156l.118-.118M225.1 7.5c0 4.08 3.32 7.4 7.4 7.4.68 0 1.35-.09 1.99-.27-1.04 2.56-3.56 4.37-6.49 4.37-3.86 0-7-3.14-7-7 0-2.93 1.81-5.45 4.37-6.49-.18.64-.27 1.31-.27 1.99m2 0c0-1.81.89-3.42 2.26-4.4-.44-.06-.9-.1-1.36-.1-4.97 0-9 4.03-9 9s4.03 9 9 9 9-4.03 9-9c0-.46-.04-.92-.1-1.36-.98 1.37-2.58 2.26-4.4 2.26-1.49 0-2.84-.605-3.818-1.582-.977-.978-1.582-2.328-1.582-3.818M221.815 18.185" fill="#fff"/></svg>
