<svg xmlns="http://www.w3.org/2000/svg" viewBox="0 0 456 24" width="456" height="24"><path d="M2 3.5h20m-20 17h20M2 12h20M2 12h20M2 12h20M2 12h20M26 3.64h20M26 20.36h20M26 12h20M26 12h20m-20 0h20m-20 0h20M50 4.059h20M50 19.941h20M50 12h20M50 12h20m-20 0h20m-20 0h20M74 4.757h20M74 19.243h20M74 12h20M74 12h20m-20 0h20m-20 0h20M98 5.735h20m-20 12.53h20M98 12h20M98 12h20m-20 0h20m-20 0h20M122 6.993h20m-20 10.014h20M122 12h20M122 12h20m-20 0h20m-20 0h20M146 8.53h20m-20 6.94h20M146 12h20M146 12h20m-20 0h20m-20 0h20M170 10.346h20m-20 3.308h20M170 12h20M170 12h20m-20 0h20m-20 0h20M194 12h20m-20 0h20m-20 0h20M194 12h20m-20 0h20m-20 0h20" fill="#000000" stroke="#000000" stroke-width="3" stroke-linecap="round"/><path d="M218 12h20m-20 0h20m-20 0h20" fill="#000000" stroke="#000000" stroke-opacity=".5" stroke-width="3" stroke-linecap="round"/><path d="M218 12h20m-20 0h20m-20 0h20" fill="#000000" stroke="#000000" stroke-width="3" stroke-linecap="round"/><g><path d="M242 12h20m-20 0h20m-20 0h20" fill="#000000"/><path d="M242 12h20m-20 0h20m-20 0h20" fill="#000000" stroke="#000000" stroke-width="3" stroke-linecap="round"/></g><g><path d="M266 12h20m-20 0h20m-20 0h20" fill="#000000"/><path d="M266.57 13.376l18.86-2.752m-18.86 2.752l18.86-2.752m-18.86 0l18.86 2.752" fill="#000000" stroke="#000000" stroke-width="3" stroke-linecap="round"/></g><g><path d="M290 12h20m-20 0h20m-20 0h20" fill="#000000"/><path d="M291.196 14.887l17.608-5.774m-17.608 5.774l17.608-5.774m-17.608 0l17.608 5.774" fill="#000000" stroke="#000000" stroke-width="3" stroke-linecap="round"/></g><g><path d="M314 12h20m-20 0h20m-20 0h20" fill="#000000"/><path d="M315.725 16.165l16.55-8.33m-16.55 8.33l16.55-8.33m-16.55 0l16.55 8.33" fill="#000000" stroke="#000000" stroke-width="3" stroke-linecap="round"/></g><g><path d="M338 12h20m-20 0h20m-20 0h20" fill="#000000"/><path d="M340.159 17.211l15.682-10.422m-15.682 10.422l15.682-10.422m-15.682 0l15.682 10.422" fill="#000000" stroke="#000000" stroke-width="3" stroke-linecap="round"/></g><g><path d="M362 12h20m-20 0h20m-20 0h20" fill="#000000"/><path d="M364.496 18.025l15.008-12.05m-15.008 12.05l15.008-12.05m-15.008 0l15.008 12.05" fill="#000000" stroke="#000000" stroke-width="3" stroke-linecap="round"/></g><g><path d="M386 12h20m-20 0h20m-20 0h20" fill="#000000"/><path d="M388.736 18.606l14.528-13.212m-14.528 13.212l14.528-13.212m-14.528 0l14.528 13.212" fill="#000000" stroke="#000000" stroke-width="3" stroke-linecap="round"/></g><g><path d="M410 12h20m-20 0h20m-20 0h20" fill="#000000"/><path d="M412.881 18.955l14.238-13.91m-14.238 13.91l14.238-13.91m-14.238 0l14.238 13.91" fill="#000000" stroke="#000000" stroke-width="3" stroke-linecap="round"/></g><g><path d="M434 12h20m-20 0h20m-20 0h20" fill="#000000"/><path d="M436.929 19.071l14.142-14.142m-14.142 14.142l14.142-14.142m-14.142 0l14.142 14.142" fill="#000000" stroke="#000000" stroke-width="3" stroke-linecap="round"/></g></svg>