<?xml version="1.0" encoding="UTF-8"?>
<svg width="24px" height="24px" enable-background="new 0 0 24 24" fill="#000000" version="1.1" viewBox="0 0 24 24" xmlns="http://www.w3.org/2000/svg">
 <path d="m6.3487 6.3487-2.5835-2.5835m8.2348 0.24265-1e-6 -3.6536m-7.9921 11.646h-3.6536m5.9945 5.6513-2.5835 2.5835m8.2348-0.24265-1e-6 3.6536m5.6513-17.297 2.5835-2.5835m-2.5835 13.886 2.5835 2.5835m-0.24265-8.2348h3.6536m-6.5504 0a5.0907 5.0907 0 0 1-5.0907 5.0907 5.0907 5.0907 0 0 1-5.0907-5.0907 5.0907 5.0907 0 0 1 5.0907-5.0907 5.0907 5.0907 0 0 1 5.0907 5.0907z" fill="none" stroke="#000" stroke-linecap="round" stroke-width=".70852"/>
</svg>
