<?xml version="1.0" encoding="UTF-8" standalone="no"?>
<svg
   width="24px"
   height="24px"
   enable-background="new 0 0 24 24"
   fill="#000000"
   version="1.1"
   viewBox="0 0 24 24"
   id="svg4"
   sodipodi:docname="sun.svg"
   inkscape:version="1.1.2 (1:1.1+202202050942+0a00cf5339)"
   xmlns:inkscape="http://www.inkscape.org/namespaces/inkscape"
   xmlns:sodipodi="http://sodipodi.sourceforge.net/DTD/sodipodi-0.dtd"
   xmlns="http://www.w3.org/2000/svg"
   xmlns:svg="http://www.w3.org/2000/svg">
  <defs
     id="defs8" />
  <sodipodi:namedview
     id="namedview6"
     pagecolor="#ffffff"
     bordercolor="#666666"
     borderopacity="1.0"
     inkscape:pageshadow="2"
     inkscape:pageopacity="0.0"
     inkscape:pagecheckerboard="0"
     showgrid="false"
     inkscape:zoom="11.1875"
     inkscape:cx="12.692737"
     inkscape:cy="18.011173"
     inkscape:window-width="1366"
     inkscape:window-height="705"
     inkscape:window-x="0"
     inkscape:window-y="27"
     inkscape:window-maximized="1"
     inkscape:current-layer="svg4" />
  <path
     d="m6.3487 6.3487-2.5835-2.5835m8.2348 0.24265-1e-6 -3.6536m-7.9921 11.646h-3.6536m5.9945 5.6513-2.5835 2.5835m8.2348-0.24265-1e-6 3.6536m5.6513-17.297 2.5835-2.5835m-2.5835 13.886 2.5835 2.5835m-0.24265-8.2348h3.6536m-6.5504 0a5.0907 5.0907 0 0 1-5.0907 5.0907 5.0907 5.0907 0 0 1-5.0907-5.0907 5.0907 5.0907 0 0 1 5.0907-5.0907 5.0907 5.0907 0 0 1 5.0907 5.0907z"
     fill="none"
     stroke="#000"
     stroke-linecap="round"
     stroke-width=".70852"
     id="path2"
     style="stroke-width:1;stroke-miterlimit:4;stroke-dasharray:none" />
</svg>
